<svg xmlns="http://www.w3.org/2000/svg" xml:space="preserve" width="512" height="512">
  <path fill="#fff" d="M435.062 262.166c4.875-3.625 9.812-7.187 14.229-11.604 13.208-13.229 23.271-29.333 29.792-47.854a15.871 15.871 0 0 0-3.772-16.625 15.92 15.92 0 0 0-16.623-3.792c-35.396 12.5-73.688 4-99.896-22.25-26.249-26.25-34.791-64.521-22.249-99.896a16.008 16.008 0 0 0-3.792-16.646 16.037 16.037 0 0 0-16.625-3.791c-18.542 6.583-34.625 16.625-47.834 29.833-33.541 33.5-43.979 81-32.479 123.792-43.25 5.521-82.125 28.5-108.021 63.792A110.94 110.94 0 0 0 112 256C50.25 256 0 306.249 0 368c0 61.75 50.25 112 112 112 13.688 0 27.084-2.501 39.709-7.334 28.956 25.25 65.79 39.334 104.29 39.334 38.542 0 75.333-14.084 104.291-39.334A110.826 110.826 0 0 0 399.999 480c61.75 0 112-50.25 112-112 .001-49.438-32.416-91.021-76.937-105.834zM290.916 92.167c2.542-2.583 5.271-4.979 8.146-7.229-2.25 35.979 10.729 71.375 37.104 97.729 26.376 26.375 61.771 39.333 97.751 37.104-13.792 17.584-32.792 28.521-53.126 33.188-27.375-34.75-67.604-56.624-111.958-60.187-12.271-33.959-5.083-73.439 22.083-100.605z"/>
</svg>
