<svg xmlns="http://www.w3.org/2000/svg" xml:space="preserve" width="512" height="512">
  <path fill="#fff" fill-rule="evenodd" d="M400 160c-5.312 0-10.562.375-15.792 1.125C354.334 120.417 307.188 96 256 96s-98.312 24.417-128.208 65.125c-5.23-.75-10.48-1.125-15.792-1.125C50.25 160 0 210.25 0 272s50.25 112 112 112c13.688 0 27.084-2.5 39.709-7.333C180.666 401.917 217.5 416 256 416c38.542 0 75.333-14.083 104.291-39.333A110.825 110.825 0 0 0 400 384c61.75 0 112-50.25 112-112s-50.25-112-112-112z" clip-rule="evenodd"/>
</svg>
