<svg xmlns="http://www.w3.org/2000/svg" xml:space="preserve" width="512" height="512">
  <path fill="#fff" fill-rule="evenodd" d="M400 96c-5.312 0-10.562.375-15.792 1.125C354.334 56.417 307.188 32 256 32s-98.312 24.417-128.208 65.125C122.562 96.375 117.312 96 112 96 50.25 96 0 146.25 0 208s50.25 112 112 112c13.688 0 27.084-2.5 39.709-7.333C180.666 337.917 217.5 352 256 352c38.542 0 75.333-14.083 104.291-39.333A110.825 110.825 0 0 0 400 320c61.75 0 112-50.25 112-112S461.75 96 400 96zM224 448c0 17.688 14.312 32 32 32s32-14.312 32-32-32-64-32-64-32 46.312-32 64z" clip-rule="evenodd"/>
</svg>
