<svg xmlns="http://www.w3.org/2000/svg" xml:space="preserve" width="512" height="512">
  <path fill="#fff" d="m192 384 32 32-32 96 96-96-32-32 32-64-96 64zm320-249.167c0-49.146-40-89.124-89.167-89.124a90.87 90.87 0 0 0-7.146.27C392.562 17.146 357.709 0 320 0c-37.688 0-72.562 17.146-95.688 45.979a91.556 91.556 0 0 0-7.188-.27C168 45.709 128 85.688 128 134.833c0 5.146.688 10.125 1.5 15.042-.542.708-1.188 1.354-1.708 2.083A110.94 110.94 0 0 0 112 150.833c-61.75 0-112 50.25-112 112 0 61.751 50.25 112 112 112 13.688 0 27.084-2.499 39.709-7.333 1.104.959 2.416 1.625 3.541 2.562l28.312-18.875c-9.438-6.688-18.25-14.125-25.625-23-13 9.146-28.812 14.646-45.938 14.646-44.188 0-80-35.791-80-80 0-44.167 35.812-80 80-80 10.812 0 21.062 2.209 30.438 6.083.562-1.083 1.25-2 1.812-3.042a130.207 130.207 0 0 1 20.666-28.042c23.084-23.896 55.167-39 91.084-39 49.709 0 92.334 28.667 113.541 70.083 5.646-2.333 11.668-3.833 17.875-4.833l12.584-1.25c12.334 0 23.875 3.042 34.312 8 11.312 5.417 21.021 13.375 28.646 23.208 10.5 13.521 17.042 30.334 17.042 48.792 0 44.209-35.812 80-80 80-17.125 0-32.916-5.5-45.938-14.646-14 16.875-32.438 29.562-53.146 37.562l-5.979 11.938 18.25 18.25c17.062-6.646 33.021-16.188 47.104-28.438a110.804 110.804 0 0 0 39.709 7.333c61.75 0 112-50.249 112-112 0-25.666-9.042-49.083-23.666-68C502.916 178.958 512 158.021 512 134.833zm-46.438 37.625c-18.479-13.438-41-21.625-65.562-21.625-5.312 0-10.562.375-15.792 1.125-29.874-40.687-77.02-65.125-128.208-65.125-34.125 0-66.312 11.062-92.938 30.354 7.479-22.853 28.729-39.478 54.062-39.478a56.58 56.58 0 0 1 21.75 4.333C254.062 52.458 284.5 32 320 32s65.958 20.458 81.084 50.042c6.729-2.771 14.083-4.333 21.749-4.333 31.584 0 57.167 25.583 57.167 57.124 0 14.5-5.562 27.563-14.438 37.625z"/>
</svg>
