<svg xmlns="http://www.w3.org/2000/svg" xml:space="preserve" width="512" height="512">
  <path fill="#fff" d="M512 134.833c0-49.146-40-89.124-89.167-89.124a90.87 90.87 0 0 0-7.146.27C392.562 17.146 357.709 0 320 0c-37.688 0-72.562 17.146-95.688 45.979a91.556 91.556 0 0 0-7.188-.27C168 45.709 128 85.688 128 134.833c0 5.146.688 10.125 1.5 15.042-.542.708-1.188 1.354-1.708 2.083A110.94 110.94 0 0 0 112 150.833c-61.75 0-112 50.25-112 112 0 61.751 50.25 112 112 112 13.688 0 27.084-2.499 39.709-7.333 18.354 16 40.104 26.938 63.207 33.208L192 416l32 32-32 64 96-64-32-32 4.812-9.583c36.75-1.125 71.75-14.729 99.479-38.917A110.804 110.804 0 0 0 400 374.833c61.75 0 112-50.249 112-112 0-25.666-9.042-49.083-23.666-68 14.582-15.875 23.666-36.812 23.666-60z"/>
</svg>
