<svg xmlns="http://www.w3.org/2000/svg" xml:space="preserve" width="512" height="512">
  <path fill="#fff" d="M495 223h-81.625C405.312 151.208 344.938 95 271 95c-49.812 0-93.75 25.458-119.625 64H47c-8.833 0-16 7.167-16 16s7.167 16 16 16h88.833c-3.624 10.208-5.979 20.896-7.208 32H79c-8.833 0-16 7.167-16 16s7.167 16 16 16h49.625c1.229 11.084 3.584 21.812 7.208 32H49.916C39.459 287 31 294.167 31 303s8.459 16 18.916 16h101.459c25.875 38.562 69.812 64 119.625 64 49.812 0 93.75-25.438 119.624-64h37.46c10.457 0 18.916-7.167 18.916-16s-8.459-16-18.916-16h-21.917c3.624-10.188 5.958-20.916 7.208-32H495c8.833 0 16-7.167 16-16s-7.167-16-16-16zm-324.771-32H271c8.833 0 16-7.167 16-16s-7.167-16-16-16h-78.146c20.209-19.729 47.729-32 78.146-32 56.291 0 102.542 41.875 110.375 96h-220.75c1.625-11.312 4.834-22.042 9.604-32zM271 351c-30.417 0-57.938-12.291-78.146-32h156.271c-20.187 19.709-47.708 32-78.125 32zm100.75-64H170.229c-4.77-9.958-7.979-20.688-9.604-32h220.75c-1.625 11.312-4.834 22.042-9.625 32z"/>
</svg>
