<svg xmlns="http://www.w3.org/2000/svg" width="512" height="512" viewBox="0 0 512 512"><path fill-rule="evenodd" clip-rule="evenodd" fill="#fff" d="M256 144c-61.8 0-112 50.3-112 112 0 61.8 50.3 112 112 112s112-50.3 112-112c0-61.8-50.3-112-112-112zm0 192a80 80 0 1 1 0-160 80 80 0 0 1 0 160zm0-224a16 16 0 0 0 16-16V64a16 16 0 0 0-32 0v32a16 16 0 0 0 16 16zm0 288a16 16 0 0 0-16 16v32a16 16 0 0 0 32 0v-32a16 16 0 0 0-16-16zm124.4-245.8l22.7-22.7a16 16 0 1 0-22.7-22.6l-22.6 22.6a16 16 0 1 0 22.6 22.7zM131.6 357.8l-22.7 22.7a16 16 0 1 0 22.7 22.6l22.6-22.6a16 16 0 1 0-22.6-22.7zM112 256a16 16 0 0 0-16-16H64a16 16 0 0 0 0 32h32a16 16 0 0 0 16-16zm336-16h-32a16 16 0 0 0 0 32h32a16 16 0 0 0 0-32zm-316.5-85.8a16 16 0 1 0 22.7-22.7L131.5 109a16 16 0 1 0-22.6 22.6l22.6 22.7zm249 203.6a16 16 0 1 0-22.7 22.6l22.7 22.7a16 16 0 1 0 22.6-22.7l-22.6-22.6z"/></svg>