<svg xmlns="http://www.w3.org/2000/svg" width="512" height="512" viewBox="0 0 512 512"><path fill="#fff" d="M208 64a16 16 0 0 0 16-16V16a16 16 0 0 0-32 0v32a16 16 0 0 0 16 16zm124.4 42.2l22.7-22.7A16 16 0 1 0 332.4 61l-22.6 22.6a16 16 0 1 0 22.6 22.7zM16 224h32a16 16 0 0 0 0-32H16a16 16 0 0 0 0 32zm336-16a16 16 0 0 0 16 16h32a16 16 0 0 0 0-32h-32a16 16 0 0 0-16 16zM83.5 106.2a16 16 0 1 0 22.7-22.7L83.5 61A16 16 0 1 0 61 83.5l22.6 22.7zM400 256c-5.3 0-10.6.4-15.8 1.1a159.3 159.3 0 0 0-64.4-51.5A112 112 0 0 0 96 208a110 110 0 0 0 11.5 48.4A112 112 0 0 0 0 368a112.1 112.1 0 0 0 151.7 104.7 158.4 158.4 0 0 0 208.6 0A112.1 112.1 0 0 0 512 368c0-61.8-50.3-112-112-112zM208 128a79.8 79.8 0 0 1 78.7 67.3c-10-2-20.2-3.3-30.7-3.3-46 0-88.5 19.8-118.4 53.3A79 79 0 0 1 128 208a80 80 0 0 1 80-80zm192 320c-17.1 0-33-5.5-46-14.7a127 127 0 0 1-98 46.7 127 127 0 0 1-98-46.7A80 80 0 1 1 112 288c7.8 0 15 1.5 22.1 3.5 2.8.8 5.7 1.5 8.3 2.6a130 130 0 0 1 16-23.8A126.5 126.5 0 0 1 256 224c10.1 0 19.8 1.5 29.3 3.7a129.2 129.2 0 0 1 84.3 66.4A80 80 0 1 1 400 448z"/></svg>