<svg xmlns="http://www.w3.org/2000/svg" width="512" height="512" viewBox="0 0 512 512"><path fill-rule="evenodd" clip-rule="evenodd" fill="#fff" d="M400 160c-5.3 0-10.6.4-15.8 1.1a158.6 158.6 0 0 0-256.4 0A112.1 112.1 0 0 0 0 272a112.1 112.1 0 0 0 151.7 104.7 158.4 158.4 0 0 0 208.6 0A112.1 112.1 0 0 0 512 272c0-61.8-50.3-112-112-112zm0 192c-17.1 0-33-5.5-46-14.7a127 127 0 0 1-98 46.7 127 127 0 0 1-98-46.7 80 80 0 1 1-15.5-139.2C163.6 156.7 206.2 128 256 128s92.3 28.7 113.5 70A79.7 79.7 0 0 1 480 272a80 80 0 0 1-80 80z"/></svg>