<svg xmlns="http://www.w3.org/2000/svg" width="512" height="512" viewBox="0 0 512 512"><path fill="#fff" d="M512 240a89.2 89.2 0 0 0-96.3-88.9 122.3 122.3 0 0 0-191.4 0A89.2 89.2 0 0 0 129.5 255c-.5.8-1.2 1.4-1.7 2.1A112.1 112.1 0 0 0 0 368a112.1 112.1 0 0 0 151.7 104.7 158.4 158.4 0 0 0 208.6 0A112.1 112.1 0 0 0 512 368c0-25.7-9-49-23.7-68a88.4 88.4 0 0 0 23.7-60zM400 448c-17.1 0-33-5.5-46-14.7a127 127 0 0 1-98 46.7 127 127 0 0 1-98-46.7A80 80 0 1 1 142.4 294l1.7-3a129.7 129.7 0 0 1 20.7-28c23.1-24 55.2-39 91.1-39 49.7 0 92.3 28.7 113.5 70a81 81 0 0 1 18-4.7L400 288a79.6 79.6 0 0 1 63 31.2 79.3 79.3 0 0 1 17 48.8 80 80 0 0 1-80 80zm65.6-170.4a110.9 110.9 0 0 0-81.4-20.5 158.6 158.6 0 0 0-221.1-34.8 57 57 0 0 1 75.8-35.1c15.2-29.6 45.6-50 81.1-50s66 20.4 81 50a57 57 0 0 1 64.6 90.4z"/></svg>