<svg xmlns="http://www.w3.org/2000/svg" width="512" height="512" viewBox="0 0 512 512"><path fill="#fff" d="M192 384l32 32-32 96 96-96-32-32 32-64-96 64zm320-249.2A89.2 89.2 0 0 0 415.7 46a122.3 122.3 0 0 0-191.4 0l-7.2-.3A89.2 89.2 0 0 0 129.5 150l-1.7 2A112.1 112.1 0 0 0 0 262.9a112.1 112.1 0 0 0 151.7 104.7c1.1 1 2.4 1.6 3.6 2.6l28.3-19a132 132 0 0 1-25.7-23 80 80 0 1 1-15.5-139.3c.6-1 1.3-1.9 1.8-3a130.2 130.2 0 0 1 20.7-28c23.1-23.9 55.2-39 91.1-39 49.7 0 92.3 28.7 113.5 70.1a80 80 0 0 1 18-4.8l12.5-1.3a79.6 79.6 0 0 1 63 31.2 79.3 79.3 0 0 1 17 48.8 80 80 0 0 1-126 65.4 129 129 0 0 1-53 37.5l-6 12 18.2 18.2c17-6.6 33-16.2 47-28.4A112.1 112.1 0 0 0 512 262.8c.1-25.6-9-49-23.6-68a88.4 88.4 0 0 0 23.7-60zm-46.4 37.7a111 111 0 0 0-81.4-20.5 158.7 158.7 0 0 0-221.1-34.8A57 57 0 0 1 238.9 82C254 52.5 284.5 32 320 32s66 20.5 81 50a57 57 0 0 1 64.6 90.5z"/></svg>