<?xml version="1.0" ?><!DOCTYPE svg  PUBLIC '-//W3C//DTD SVG 1.1//EN'  'http://www.w3.org/Graphics/SVG/1.1/DTD/svg11.dtd'><svg enable-background="new 0 0 65 65" height="65px" id="Layer_1" version="1.1" viewBox="0 0 65 65" width="65px" xml:space="preserve" xmlns="http://www.w3.org/2000/svg" xmlns:xlink="http://www.w3.org/1999/xlink"><path d="M32.499,8.354c-3.256,0-5.904,2.649-5.904,5.905c0,3.256,2.648,5.904,5.904,5.904c3.257,0,5.906-2.648,5.906-5.904  C38.405,11.002,35.756,8.354,32.499,8.354z"/><path d="M61.915,61.738L35.92,49.056l25.995-12.683c0.745-0.362,1.054-1.261,0.69-2.006c-0.362-0.743-1.263-1.053-2.005-0.689  L37.46,44.968c6.258-9.925,11.382-26.367,7.503-36.187c-2.019-5.11-6.298-8.003-12.375-8.365C32.558,0.415,32.53,0.42,32.5,0.421  c-0.03,0-0.06-0.006-0.09-0.004C26.334,0.778,22.056,3.67,20.037,8.779c-3.879,9.817,1.244,26.262,7.502,36.188L4.4,33.678  c-0.744-0.363-1.643-0.054-2.006,0.689c-0.363,0.745-0.054,1.644,0.69,2.006L29.08,49.056L3.084,61.738  c-0.745,0.362-1.054,1.261-0.69,2.006c0.26,0.532,0.794,0.842,1.349,0.842c0.221,0,0.445-0.049,0.657-0.152l28.1-13.71l28.101,13.71  c0.211,0.104,0.436,0.152,0.656,0.152c0.556,0,1.089-0.31,1.349-0.842C62.969,62.999,62.66,62.101,61.915,61.738z M32.499,23.163  c-4.91,0-8.904-3.995-8.904-8.904c0-4.91,3.995-8.905,8.904-8.905c4.911,0,8.906,3.995,8.906,8.905  C41.405,19.168,37.41,23.163,32.499,23.163z"/></svg>