<?xml version="1.0" ?><svg enable-background="new 0 0 32 32" id="Filled_Outline" version="1.1" viewBox="0 0 32 32" xml:space="preserve" xmlns="http://www.w3.org/2000/svg" xmlns:xlink="http://www.w3.org/1999/xlink"><title/><desc/><g><g><path d="M6,19c-2.76,0-5-2.24-5-5s2.24-5,5-5c0-4.42,3.58-8,8-8c3.75,0,6.89,2.57,7.76,6.05    C24.71,7.42,27,9.95,27,13c0,3.31-2.69,6-6,6H6z" fill="#7CA7C6"/><polygon fill="#FFF3AE" points="31,13 23,13 21,23 24,23 22,31 31,19 28,19   "/></g><g><path d="M31,18h-1.382l2.276-4.553c0.155-0.31,0.139-0.678-0.044-0.973S31.347,12,31,12h-3.087    c-0.413-2.851-2.541-5.191-5.366-5.827C21.341,2.507,17.916,0,14,0C9.349,0,5.511,3.546,5.047,8.075C2.19,8.533,0,11.016,0,14    c0,3.309,2.691,6,6,6h7v-2H6c-2.206,0-4-1.794-4-4s1.794-4,4-4c0.552,0,1-0.447,1-1c0-3.859,3.14-7,7-7    c3.219,0,6.011,2.177,6.79,5.292c0.1,0.4,0.436,0.698,0.846,0.75c2.149,0.27,3.836,1.899,4.257,3.958H23    c-0.477,0-0.887,0.337-0.98,0.804L20.98,18H19v2h1.58l-0.561,2.804c-0.059,0.294,0.018,0.599,0.207,0.83    C20.417,23.865,20.7,24,21,24h1.719l-1.688,6.758c-0.116,0.461,0.11,0.94,0.54,1.146C21.708,31.969,21.854,32,22,32    c0.307,0,0.606-0.142,0.8-0.4l9-12c0.228-0.303,0.264-0.708,0.095-1.047C31.725,18.214,31.379,18,31,18z M27.149,19.525    C27.332,19.82,27.653,20,28,20h1l-4.829,6.438l0.799-3.196c0.075-0.299,0.008-0.615-0.182-0.857C24.599,22.142,24.308,22,24,22    h-1.78l1.6-8h5.562l-2.276,4.553C26.95,18.862,26.967,19.23,27.149,19.525z" fill="#1A1A1A"/><rect fill="#1A1A1A" height="2" transform="matrix(0.5 -0.866 0.866 0.5 -18.6507 17.2322)" width="6.393" x="2.402" y="23.768"/><rect fill="#1A1A1A" height="2" transform="matrix(0.4999 -0.8661 0.8661 0.4999 -24.8478 17.2345)" width="2" x="1.5" y="29.134"/><rect fill="#1A1A1A" height="2" transform="matrix(0.5 -0.866 0.866 0.5 -16.1507 21.5623)" width="6.393" x="7.402" y="23.768"/><rect fill="#1A1A1A" height="2" transform="matrix(0.4999 -0.8661 0.8661 0.4999 -22.3474 21.5649)" width="2" x="6.5" y="29.134"/><rect fill="#1A1A1A" height="2" transform="matrix(0.4999 -0.8661 0.8661 0.4999 -13.6506 25.8951)" width="6.393" x="12.402" y="23.768"/><rect fill="#1A1A1A" height="2" transform="matrix(0.4999 -0.8661 0.8661 0.4999 -19.847 25.8952)" width="2" x="11.5" y="29.134"/><rect fill="#1A1A1A" height="2" width="2" x="15" y="18"/></g></g></svg>