<!-- Generated by IcoMoon.io -->
<svg version="1.1" xmlns="http://www.w3.org/2000/svg" width="512" height="512" viewBox="0 0 512 512">
<title></title>
<g id="icomoon-ignore">
</g>
<path d="M256 144c-61.75 0-112 50.25-112 112s50.25 112 112 112 112-50.25 112-112c0-61.75-50.25-112-112-112zM256 336c-44.188 0-80-35.812-80-80s35.812-80 80-80 80 35.812 80 80-35.812 80-80 80zM256 112c8.833 0 16-7.167 16-16v-32c0-8.833-7.167-16-16-16s-16 7.167-16 16v32c0 8.833 7.167 16 16 16zM256 400c-8.833 0-16 7.167-16 16v32c0 8.833 7.167 16 16 16s16-7.167 16-16v-32c0-8.833-7.167-16-16-16zM380.438 154.167l22.625-22.625c6.25-6.25 6.25-16.375 0-22.625s-16.375-6.25-22.625 0l-22.625 22.625c-6.25 6.25-6.25 16.375 0 22.625s16.375 6.25 22.625 0zM131.562 357.834l-22.625 22.625c-6.25 6.249-6.25 16.374 0 22.624s16.375 6.25 22.625 0l22.625-22.624c6.25-6.271 6.25-16.376 0-22.625-6.249-6.251-16.375-6.272-22.625 0zM112 256c0-8.833-7.167-16-16-16h-32c-8.833 0-16 7.167-16 16s7.167 16 16 16h32c8.833 0 16-7.167 16-16zM448 240h-32c-8.833 0-16 7.167-16 16s7.167 16 16 16h32c8.833 0 16-7.167 16-16s-7.167-16-16-16zM131.541 154.167c6.251 6.25 16.376 6.25 22.625 0 6.251-6.25 6.251-16.375 0-22.625l-22.625-22.625c-6.25-6.25-16.374-6.25-22.625 0-6.25 6.25-6.25 16.375 0 22.625l22.625 22.625zM380.459 357.812c-6.271-6.25-16.376-6.25-22.625 0-6.251 6.25-6.271 16.375 0 22.625l22.625 22.625c6.249 6.25 16.374 6.25 22.624 0s6.25-16.374 0-22.625l-22.624-22.625z"></path>
</svg>
