<?xml version="1.0" standalone="no"?>
<!DOCTYPE svg PUBLIC "-//W3C//DTD SVG 20010904//EN"
 "http://www.w3.org/TR/2001/REC-SVG-20010904/DTD/svg10.dtd">
<svg version="1.0" xmlns="http://www.w3.org/2000/svg"
 width="512.000000pt" height="512.000000pt" viewBox="0 0 512.000000 512.000000"
 preserveAspectRatio="xMidYMid meet">

<g transform="translate(0.000000,512.000000) scale(0.100000,-0.100000)"
fill="#000000" stroke="none">
<path d="M2370 5113 c-371 -35 -653 -114 -961 -269 -406 -203 -782 -548 -1029
-944 -179 -286 -309 -655 -362 -1025 -17 -118 -17 -512 0 -630 42 -295 120
-553 242 -800 137 -280 272 -468 494 -691 221 -220 412 -357 681 -489 188 -92
309 -137 500 -185 500 -126 1002 -102 1490 71 150 53 408 183 540 271 560 374
952 942 1095 1588 33 150 50 291 57 465 15 426 -73 832 -263 1214 -124 250
-263 447 -458 648 -214 222 -430 379 -711 518 -296 146 -572 225 -900 255
-102 9 -333 11 -415 3z m440 -453 c713 -89 1341 -536 1652 -1178 211 -435 266
-952 151 -1422 -170 -701 -698 -1275 -1383 -1504 -235 -78 -413 -106 -675
-106 -634 0 -1212 272 -1624 765 -252 302 -421 694 -470 1095 -14 109 -14 391
-1 500 81 653 458 1231 1026 1570 235 140 537 244 814 279 96 12 412 13 510 1z"/>
<path d="M2845 3440 c-511 -220 -797 -348 -810 -363 -11 -12 -172 -377 -358
-809 -368 -860 -363 -844 -308 -899 55 -55 39 -61 899 308 512 219 796 346
813 362 16 17 143 301 362 813 369 860 363 844 308 899 -55 55 -41 60 -906
-311z m-166 -693 c22 -15 53 -46 68 -69 24 -36 28 -51 28 -118 0 -67 -4 -82
-28 -118 -15 -23 -46 -54 -69 -69 -36 -24 -51 -28 -118 -28 -67 0 -82 4 -118
28 -63 41 -95 97 -100 171 -6 97 36 173 121 216 61 31 158 25 216 -13z"/>
</g>
</svg>
