<?xml version="1.0" encoding="utf-8"?>
<!-- Generator: Adobe Illustrator 16.0.0, SVG Export Plug-In . SVG Version: 6.00 Build 0)  -->
<!DOCTYPE svg PUBLIC "-//W3C//DTD SVG 1.1//EN" "http://www.w3.org/Graphics/SVG/1.1/DTD/svg11.dtd">
<svg version="1.1" id="Layer_1" xmlns="http://www.w3.org/2000/svg" xmlns:xlink="http://www.w3.org/1999/xlink" x="0px" y="0px"
	 width="100px" height="100px" viewBox="0 0 100 100" enable-background="new 0 0 100 100" xml:space="preserve">
<g>
	<path d="M100.119,40.969c0.008,0.792,0.016,1.585,0.023,2.377c-0.146,1.687-0.371,3.362-0.738,5.016
		c-0.266,0.833-0.53,1.667-0.797,2.5c-0.75,1.74-1.629,3.41-2.656,5c-0.28,0.378-0.561,0.755-0.842,1.132
		c-0.389,0.458-0.778,0.915-1.168,1.373c-0.45,0.45-0.9,0.901-1.353,1.352c-0.457,0.39-0.914,0.779-1.371,1.169
		c-0.378,0.279-0.756,0.559-1.135,0.838c-1.585,1.037-3.26,1.908-5,2.654c-0.832,0.268-1.665,0.534-2.497,0.801
		c-1.654,0.367-3.331,0.588-5.018,0.74c-0.834,0.005-1.668,0.01-2.502,0.014c-0.838-0.051-1.674-0.051-2.512,0
		c-0.834,0-1.668,0-2.502,0c-0.836-0.051-1.674-0.051-2.51,0c-0.793-0.012-1.585-0.022-2.377-0.035
		c-0.289-0.092-0.578-0.184-0.867-0.275c-0.752-0.436-1.293-1.055-1.639-1.85c0.012-0.141,0-0.273-0.107-0.381
		c-0.058-2.074,0.553-2.983,2.496-3.729c0.832-0.02,1.666-0.036,2.498-0.055c0.834,0.058,1.668,0.058,2.502,0
		c0.838,0.062,1.674,0.062,2.512,0c0.834,0.058,1.668,0.058,2.5,0c0.838,0.059,1.676,0.074,2.513-0.016
		c0.295,0.053,0.584,0.034,0.868-0.055c0.134,0.059,0.259,0.041,0.379-0.035c0.214,0.02,0.425,0.018,0.625-0.072
		c0.097,0.045,0.178,0.012,0.254-0.049c0.125-0.016,0.25-0.033,0.374-0.049c1.78-0.309,3.472-0.863,5.02-1.814
		c0.829-0.385,1.587-0.877,2.267-1.49c0.106-0.018,0.192-0.063,0.229-0.176c0.957-0.703,1.798-1.524,2.501-2.483
		c0.043-0.05,0.085-0.101,0.128-0.149c0.605-0.675,1.116-1.414,1.513-2.229c0.979-1.581,1.612-3.29,1.92-5.122
		c0.216-0.826,0.336-1.664,0.32-2.519c0.079-0.838,0.065-1.675-0.035-2.51c-0.07-0.849-0.148-1.697-0.437-2.508
		c-0.649-2.948-2.036-5.5-4.138-7.666c-0.497-0.612-1.069-1.145-1.717-1.597c-0.42-0.416-0.885-0.772-1.42-1.029
		c-0.297-0.269-0.629-0.478-1.01-0.609c-0.801-0.545-1.682-0.916-2.605-1.193c-1.342-0.522-2.729-0.837-4.168-0.915
		c-0.205-0.075-0.412-0.1-0.627-0.045c-0.078-0.003-0.157-0.006-0.237-0.009c-0.798-0.116-1.589-0.077-2.379,0.062
		c-0.104-0.007-0.214-0.042-0.31-0.018c-0.712,0.176-1.049-0.15-1.352-0.787c-0.604-1.271-1.13-2.59-1.967-3.74
		c-0.402-0.79-0.902-1.511-1.504-2.162c-0.041-0.15-0.119-0.271-0.267-0.338c-0.646-0.898-1.39-1.703-2.247-2.402
		c-0.039-0.037-0.08-0.073-0.121-0.11c-0.705-0.745-1.502-1.379-2.375-1.917c-0.261-0.248-0.553-0.448-0.884-0.589
		c-0.503-0.398-1.055-0.713-1.646-0.961c-0.783-0.47-1.608-0.85-2.479-1.133c-1.611-0.705-3.302-1.119-5.041-1.352
		c-0.166-0.016-0.333-0.033-0.5-0.049c-0.119-0.075-0.242-0.11-0.379-0.052c-0.245-0.085-0.496-0.094-0.751-0.066
		c-0.163-0.077-0.331-0.082-0.501-0.027c-0.121-0.005-0.242-0.01-0.363-0.016c-0.881-0.123-1.759-0.081-2.636,0.04
		c-0.34-0.03-0.676-0.02-1.001,0.095c-0.091-0.05-0.174-0.033-0.252,0.029c-0.389-0.042-0.754,0.088-1.129,0.152
		c-0.366,0.068-0.736,0.119-1.097,0.206c-2.623,0.626-5.109,1.577-7.344,3.119c-0.586,0.296-1.117,0.671-1.601,1.115
		c-0.623,0.384-1.178,0.85-1.67,1.391c-0.326,0.205-0.591,0.473-0.819,0.78c-0.617,0.507-1.123,1.115-1.597,1.751
		c-0.347,0.378-0.682,0.767-0.923,1.224c-0.359,0.378-0.633,0.813-0.86,1.281c-0.553,0.78-1.009,1.612-1.36,2.502
		c-0.823,1.586-1.386,3.261-1.708,5.018c-0.187,0.611-0.324,1.231-0.326,1.875c-0.069,0.076-0.089,0.161-0.046,0.257
		c-0.013,0.123-0.026,0.246-0.039,0.368c-0.091,0.591-0.24,1.182-0.256,1.775c-0.015,0.531-0.249,0.564-0.647,0.456
		c-0.741-0.288-1.491-0.544-2.269-0.714c-0.796-0.348-1.615-0.612-2.488-0.674c-0.832-0.168-1.67-0.235-2.518-0.165
		c-0.852-0.009-1.696,0.047-2.516,0.304c-1.245,0.169-2.401,0.595-3.499,1.195c-0.154,0.017-0.289,0.069-0.381,0.203
		c-0.417,0.147-0.782,0.386-1.123,0.663c-0.892,0.534-1.68,1.191-2.355,1.983c-0.058,0.064-0.116,0.129-0.174,0.194
		c-0.715,0.664-1.272,1.445-1.725,2.306c-0.23,0.295-0.42,0.611-0.522,0.974c-0.139,0.099-0.186,0.244-0.198,0.405
		c-0.024,0.062-0.048,0.125-0.072,0.187c-0.917,1.88-1.258,3.875-1.179,5.953c-0.04,0.675,0.023,1.34,0.184,1.997
		c-0.046,0.093-0.023,0.175,0.041,0.25c0.011,0.084,0.022,0.169,0.034,0.253c0.346,1.885,1.044,3.621,2.189,5.167
		c0.272,0.506,0.623,0.949,1.04,1.343c0.382,0.524,0.837,0.979,1.366,1.354c0.354,0.371,0.754,0.684,1.207,0.928
		c1.55,1.146,3.289,1.852,5.176,2.205c0.083,0.009,0.167,0.019,0.25,0.027c0.076,0.062,0.158,0.096,0.255,0.057
		c0.2,0.086,0.408,0.098,0.621,0.074c0.078,0.068,0.163,0.086,0.256,0.033c0.369,0.098,0.743,0.113,1.12,0.062
		c0.836,0.072,1.673,0.063,2.51,0.005c0.834,0.057,1.668,0.057,2.502,0c0.836,0.062,1.673,0.062,2.51,0
		c0.834,0.057,1.668,0.057,2.502,0c0.837,0.062,1.674,0.062,2.511,0c0.831,0.021,1.662,0.041,2.493,0.062
		c1.936,0.75,2.538,1.647,2.497,3.725c-0.034,0.125-0.067,0.25-0.101,0.375c-0.405,0.935-1.078,1.601-2.006,2.013
		c-0.083,0.021-0.167,0.041-0.25,0.062c-0.879,0.029-1.758,0.06-2.637,0.09c-0.834,0-1.667,0-2.501,0c-0.837,0-1.674,0-2.511,0
		c-0.833,0-1.667,0-2.501,0c-0.837,0-1.674,0-2.511,0c-0.833-0.002-1.667-0.002-2.501-0.004c-1.688-0.08-3.354-0.322-5.001-0.691
		c-0.838-0.286-1.676-0.573-2.514-0.859c-1.773-0.832-3.45-1.822-5.011-3.01c-0.163-0.205-0.353-0.381-0.59-0.5
		c-0.634-0.637-1.269-1.273-1.903-1.91c-0.119-0.236-0.297-0.421-0.499-0.586c-1.252-1.652-2.294-3.427-3.129-5.324
		c-0.243-0.733-0.485-1.47-0.728-2.205c-0.387-1.644-0.624-3.309-0.698-4.996c0.038-0.834,0.075-1.668,0.112-2.503
		c0.233-1.707,0.651-3.369,1.202-4.999c0.364-0.798,0.729-1.597,1.093-2.395c0.871-1.445,1.835-2.826,2.924-4.116
		c0.282-0.29,0.563-0.58,0.845-0.869c0.494-0.435,0.988-0.87,1.482-1.304c0.514-0.394,1.104-0.691,1.526-1.202
		c0.409-0.029,0.682-0.311,0.986-0.535c0.793-0.392,1.586-0.784,2.379-1.177c1.63-0.612,3.296-1.091,5.018-1.364
		c0.835-0.071,1.669-0.142,2.504-0.213c0.835,0.042,1.671,0.084,2.506,0.127c0.266,0.082,0.479,0.089,0.564-0.262
		c0.132-0.542,0.296-1.077,0.446-1.614c0.343-0.874,0.686-1.748,1.028-2.621c0.207-0.31,0.372-0.64,0.476-0.999
		c0.269-0.5,0.537-0.999,0.805-1.498c0.496-0.773,0.992-1.546,1.489-2.319c0.204-0.204,0.376-0.43,0.495-0.695
		c0.548-0.669,1.096-1.338,1.644-2.007c0.238-0.168,0.433-0.377,0.575-0.632c0.547-0.535,1.094-1.07,1.641-1.605
		c0.351-0.199,0.632-0.479,0.896-0.78c1.585-1.242,3.242-2.376,4.979-3.395c0.735-0.365,1.47-0.729,2.206-1.094
		c0.141,0.034,0.205-0.09,0.302-0.146c0.842-0.307,1.685-0.614,2.527-0.921c0.829-0.236,1.657-0.472,2.485-0.708
		c1.661-0.311,3.33-0.561,5.016-0.691c0.833-0.019,1.666-0.037,2.499-0.056c1.678,0.152,3.355,0.31,5.018,0.598
		c0.836,0.21,1.672,0.42,2.509,0.63c0.834,0.291,1.67,0.581,2.504,0.872c0.418,0.174,0.834,0.349,1.25,0.523
		c1.453,0.741,2.877,1.532,4.272,2.375c0.625,0.455,1.25,0.911,1.875,1.366c0.541,0.465,1.082,0.931,1.623,1.396
		c0.285,0.268,0.572,0.536,0.859,0.803c0.502,0.534,1.004,1.068,1.507,1.603c0.378,0.462,0.755,0.925,1.132,1.388
		c0.203,0.402,0.49,0.744,0.78,1.085c0.497,0.794,0.995,1.589,1.493,2.384c0.164,0.337,0.184,0.817,0.695,0.839
		c1.545,0.068,3.047,0.395,4.556,0.682c0.832,0.27,1.663,0.538,2.495,0.807c1.754,0.745,3.439,1.618,5.037,2.659
		c0.08,0.052,0.16,0.104,0.242,0.155c0.754,0.617,1.51,1.234,2.265,1.852c0.192,0.182,0.386,0.363,0.577,0.544
		c0.639,0.708,1.277,1.416,1.916,2.123c0.046,0.158,0.146,0.274,0.281,0.364c1.16,1.617,2.141,3.337,2.98,5.141
		c0.283,0.797,0.566,1.594,0.85,2.391C99.648,37.527,99.926,39.241,100.119,40.969z"/>
	<path d="M37.469,97.049c-1.87-0.464-2.76-1.707-2.556-3.57c0.117-0.33,0.235-0.658,0.353-0.985c0.353-0.47,0.706-0.938,1.059-1.406
		c2.107-2.502,4.15-5.058,6.156-7.642c0.714-0.799,1.395-1.625,2.012-2.502c0.213-0.168,0.374-0.381,0.502-0.618
		c0.495-0.593,0.99-1.185,1.547-1.853c-0.615,0-1.084,0-1.554,0c-0.833-0.057-1.667-0.057-2.5,0c-0.837-0.062-1.674-0.062-2.511,0
		c-0.833-0.057-1.667-0.057-2.501,0c-0.837-0.062-1.674-0.062-2.512,0c-0.252-0.004-0.504-0.008-0.757-0.012
		c0.01-0.589,0.642-0.797,0.793-1.301c0.281-0.426,0.736-0.707,0.966-1.174c1.406-1.631,2.753-3.311,4.067-5.016l-0.049-0.037
		l0.051,0.034c0.727-0.823,1.43-1.665,2.065-2.562c0.174-0.127,0.305-0.288,0.389-0.487c0.597-0.627,1.142-1.298,1.63-2.015
		c0.345-0.323,0.635-0.692,0.888-1.092c0.425-0.431,0.812-0.893,1.133-1.406c2.077-2.477,4.115-4.983,6.103-7.531
		c0.14-0.079,0.235-0.189,0.272-0.35c0.604-0.616,1.114-1.312,1.645-1.99c0.326-0.225,0.652-0.447,0.979-0.671
		c0.795-0.259,1.588-0.23,2.381,0.014c0.33,0.218,0.658,0.437,0.988,0.651c0.572,0.679,0.922,1.447,0.953,2.346
		c-0.025,1.003-0.582,1.761-1.154,2.514c-0.301,0.301-0.572,0.622-0.787,0.991c-0.465,0.459-0.859,0.974-1.224,1.515
		c-2.054,2.474-4.079,4.971-6.042,7.516c-0.145,0.068-0.233,0.182-0.265,0.338c-0.936,1.053-1.819,2.146-2.642,3.29
		c-0.018,0.282,0.156,0.085,0.246,0.099c1.638,0.002,3.276,0.006,4.914,0.008c0.837,0,1.673,0,2.511,0c0.834,0,1.668,0,2.502,0
		c0.676,0,1.351,0,2.151,0c-0.371,0.513-0.646,0.891-0.921,1.269c-0.461,0.461-0.865,0.969-1.23,1.508
		c-0.262,0.209-0.463,0.468-0.617,0.763c-1.475,1.713-2.908,3.459-4.278,5.258c-0.196,0.11-0.326,0.276-0.406,0.485
		c-0.567,0.597-1.075,1.242-1.562,1.906c-0.887,1.069-1.783,2.135-2.659,3.215c-1.859,2.289-3.708,4.586-5.562,6.879
		c0.011,0.011,0.021,0.021,0.032,0.031c-0.01-0.01-0.021-0.021-0.031-0.031c-0.743,0.812-1.431,1.669-2.083,2.554
		c-0.16,0.088-0.293,0.201-0.378,0.365C39.213,96.846,38.4,97.158,37.469,97.049z"/>
	<path d="M14.914,94.116c-0.58-0.114-1.141-0.279-1.62-0.646c-0.287-0.351-0.573-0.699-0.86-1.05
		c-0.079-0.231-0.158-0.465-0.236-0.696c-0.016-0.084-0.031-0.17-0.047-0.254c-0.004-0.168-0.009-0.335-0.013-0.503
		c0.104-0.827,0.452-1.536,0.978-2.186c0.943-1.162,1.858-2.349,2.775-3.529c0.116-0.149,0.325-0.272,0.264-0.522
		c-0.42,0-0.831,0-1.242,0c-0.834-0.057-1.668-0.057-2.501,0c-0.837-0.06-1.674-0.06-2.511,0c-0.834-0.058-1.668-0.056-2.502,0
		c-0.406-0.035-0.356-0.187-0.142-0.445c0.749-0.908,1.481-1.828,2.215-2.748c0.153-0.191,0.287-0.396,0.43-0.596l0,0
		c0.721-0.795,1.397-1.625,2.013-2.504c0.216-0.166,0.377-0.377,0.498-0.619c0.562-0.582,1.063-1.213,1.516-1.883
		c0.384-0.369,0.708-0.789,0.998-1.234c0.39-0.381,0.731-0.803,1.019-1.268c0.787-0.957,1.584-1.908,2.355-2.879
		c0.447-0.562,0.957-1.029,1.625-1.307c0.869-0.245,1.702-0.127,2.512,0.242c0.583,0.353,0.993,0.865,1.336,1.441
		c0.304,0.825,0.364,1.654,0.046,2.492c-1.259,1.586-2.519,3.172-3.834,4.83c0.883,0,1.664,0,2.444,0
		c0.838,0.055,1.677,0.055,2.515,0c0.833,0,1.666,0,2.499,0c0.226,0.012,0.455,0.006,0.678,0.037
		c0.371,0.053,0.776-0.154,1.113,0.146c-1.276,1.604-2.553,3.207-3.83,4.812c-0.254,0.233-0.472,0.496-0.631,0.806
		c-0.497,0.547-0.982,1.104-1.366,1.741c-1.239,1.354-2.305,2.847-3.466,4.265c-0.635,0.772-1.274,1.547-1.863,2.354
		C17.288,93.498,16.28,94.129,14.914,94.116z"/>
	<path d="M67.549,94.121c-2.107-0.227-3.051-1.139-3.262-3.154c0.119-0.893,0.523-1.641,1.094-2.332
		c0.672-0.814,1.293-1.672,1.938-2.512c0.423-0.408,0.755-0.881,1.123-1.393c-1.211,0-2.308,0-3.402,0
		c-0.834-0.057-1.667-0.057-2.501,0c-0.838-0.06-1.675-0.06-2.513,0c-0.252-0.004-0.502-0.008-0.754-0.014
		c-0.01-0.09-0.019-0.18-0.026-0.27c0.228-0.279,0.45-0.561,0.678-0.84c0.179-0.137,0.316-0.306,0.412-0.51
		c0.608-0.688,1.196-1.395,1.72-2.15c0.266-0.249,0.547-0.489,0.637-0.868c0.535-0.39,0.865-0.953,1.254-1.47
		c0.427-0.51,0.863-1.012,1.279-1.531c1.629-2.036,3.254-4.076,4.879-6.114l0.002-0.004c0.682-0.798,1.34-1.625,2.457-1.841
		c0.848-0.079,1.625,0.138,2.354,0.556c0.449,0.402,0.86,0.837,1.166,1.361c0.313,0.799,0.308,1.592-0.028,2.383
		c-1.3,1.59-2.599,3.181-3.953,4.836c1.096,0,2.031,0,2.969,0c0.832,0,1.666,0,2.498,0c0.84,0.056,1.678,0.056,2.516,0
		c0.421,0.007,0.842,0.015,1.262,0.021c0.062,0.229-0.132,0.334-0.238,0.471c-0.604,0.77-1.221,1.529-1.824,2.299
		c-1.285,1.633-2.565,3.271-3.85,4.906c-0.179,0.115-0.304,0.275-0.379,0.475c-0.6,0.631-1.129,1.318-1.623,2.032
		c-0.338,0.333-0.631,0.703-0.881,1.106c-0.426,0.426-0.795,0.895-1.113,1.403c-0.412,0.496-0.871,0.959-1.225,1.494
		C69.568,93.438,68.662,93.932,67.549,94.121z"/>
</g>
</svg>
