<!-- Generated by IcoMoon.io -->
<svg version="1.1" xmlns="http://www.w3.org/2000/svg" width="512" height="512" viewBox="0 0 512 512">
<title></title>
<g id="icomoon-ignore">
</g>
<path d="M112 160h288c8.833 0 16-7.167 16-16s-7.167-16-16-16h-288c-8.833 0-16 7.167-16 16s7.167 16 16 16zM400 192h-288c-8.833 0-16 7.167-16 16s7.167 16 16 16h288c8.833 0 16-7.167 16-16s-7.167-16-16-16zM400 256h-288c-8.833 0-16 7.167-16 16s7.167 16 16 16h288c8.833 0 16-7.167 16-16s-7.167-16-16-16zM400 320h-288c-8.833 0-16 7.167-16 16s7.167 16 16 16h288c8.833 0 16-7.167 16-16s-7.167-16-16-16z"></path>
</svg>
