<!-- Generated by IcoMoon.io -->
<svg version="1.1" xmlns="http://www.w3.org/2000/svg" width="512" height="512" viewBox="0 0 512 512">
<title></title>
<g id="icomoon-ignore">
</g>
<path d="M400 64c-5.312 0-10.562 0.375-15.792 1.125-29.874-40.708-77.020-65.125-128.208-65.125s-98.312 24.417-128.208 65.125c-5.23-0.75-10.48-1.125-15.792-1.125-61.75 0-112 50.25-112 112s50.25 112 112 112c13.688 0 27.084-2.5 39.709-7.333 28.957 25.25 65.791 39.333 104.291 39.333 38.542 0 75.333-14.083 104.291-39.333 12.625 4.833 26.021 7.333 39.709 7.333 61.75 0 112-50.25 112-112s-50.25-112-112-112zM400 256c-17.125 0-32.916-5.5-45.938-14.667-23.478 28.292-58.438 46.667-98.062 46.667s-74.584-18.375-98.062-46.667c-13 9.167-28.813 14.667-45.938 14.667-44.188 0-80-35.812-80-80s35.812-80 80-80c10.812 0 21.062 2.208 30.438 6.083 21.229-41.416 63.853-70.083 113.562-70.083s92.334 28.667 113.541 70.083c9.397-3.875 19.668-6.083 30.459-6.083 44.188 0 80 35.812 80 80s-35.812 80-80 80zM225 480c0 17.688 14.312 32 32 32s32-14.312 32-32-32-64-32-64-32 46.312-32 64zM352 448c0 17.688 14.312 32 32 32s32-14.312 32-32-32-64-32-64-32 46.312-32 64zM96 384c0 17.688 14.312 32 32 32s32-14.312 32-32-32-64-32-64-32 46.312-32 64z"></path>
</svg>
