<?xml version="1.0" standalone="no"?>
<!DOCTYPE svg PUBLIC "-//W3C//DTD SVG 20010904//EN"
 "http://www.w3.org/TR/2001/REC-SVG-20010904/DTD/svg10.dtd">
<svg version="1.0" xmlns="http://www.w3.org/2000/svg"
 width="256.000000pt" height="256.000000pt" viewBox="0 0 256.000000 256.000000"
 preserveAspectRatio="xMidYMid meet">

<g transform="translate(0.000000,256.000000) scale(0.100000,-0.100000)"
fill="#000000" stroke="none">
<path d="M1178 2343 l-3 -108 -75 -15 c-201 -43 -356 -125 -496 -264 -139
-140 -221 -295 -264 -496 l-15 -75 -108 -3 -107 -3 0 -99 0 -99 107 -3 108 -3
15 -75 c43 -201 125 -356 264 -496 140 -139 295 -221 496 -264 l75 -15 3 -108
3 -107 99 0 99 0 3 107 3 108 75 15 c201 43 356 125 496 264 139 140 221 295
264 496 l15 75 108 3 107 3 0 99 0 99 -107 3 -108 3 -15 75 c-43 201 -125 356
-264 496 -140 139 -295 221 -496 264 l-75 15 -3 108 -3 107 -99 0 -99 0 -3
-107z m287 -337 c33 -9 103 -37 155 -63 80 -39 109 -61 186 -137 76 -77 98
-106 137 -186 65 -132 81 -201 81 -340 0 -139 -16 -208 -81 -340 -39 -80 -61
-109 -137 -186 -77 -76 -106 -98 -186 -137 -132 -65 -201 -81 -340 -81 -139 0
-208 16 -340 81 -80 39 -109 61 -186 137 -76 77 -98 106 -137 186 -65 132 -81
201 -81 340 0 139 16 208 81 340 39 80 60 109 137 185 118 117 226 176 386
211 80 17 241 12 325 -10z"/>
<path d="M1148 1685 c-77 -25 -167 -93 -215 -163 -59 -86 -76 -152 -71 -267 3
-79 8 -101 37 -159 42 -85 112 -156 198 -198 65 -32 72 -33 183 -33 111 0 118
1 183 33 86 43 156 113 199 199 32 65 33 72 33 183 0 111 -1 118 -33 183 -43
86 -113 156 -199 199 -60 29 -76 33 -167 35 -69 2 -116 -2 -148 -12z m189
-200 c49 -10 108 -58 133 -109 43 -90 18 -206 -57 -263 -108 -82 -265 -47
-323 72 -43 89 -18 205 57 262 35 27 116 54 143 48 8 -2 29 -6 47 -10z"/>
</g>
</svg>
