<svg width="512" height="512" viewBox="0 0 512 512" fill="none" xmlns="http://www.w3.org/2000/svg">
<path d="M495 223H413.375C405.312 151.208 344.938 95 271 95C221.188 95 177.25 120.458 151.375 159H47C38.167 159 31 166.167 31 175C31 183.833 38.167 191 47 191H135.833C132.209 201.208 129.854 211.896 128.625 223H79C70.167 223 63 230.167 63 239C63 247.833 70.167 255 79 255H128.625C129.854 266.084 132.209 276.812 135.833 287H49.916C39.459 287 31 294.167 31 303C31 311.833 39.459 319 49.916 319H151.375C177.25 357.562 221.187 383 271 383C320.812 383 364.75 357.562 390.624 319H428.084C438.541 319 447 311.833 447 303C447 294.167 438.541 287 428.084 287H406.167C409.791 276.812 412.125 266.084 413.375 255H495C503.833 255 511 247.833 511 239C511 230.167 503.833 223 495 223ZM170.229 191H271C279.833 191 287 183.833 287 175C287 166.167 279.833 159 271 159H192.854C213.063 139.271 240.583 127 271 127C327.291 127 373.542 168.875 381.375 223H160.625C162.25 211.688 165.459 200.958 170.229 191ZM271 351C240.583 351 213.062 338.709 192.854 319H349.125C328.938 338.709 301.417 351 271 351ZM371.75 287H170.229C165.459 277.042 162.25 266.312 160.625 255H381.375C379.75 266.312 376.541 277.042 371.75 287Z" fill="white"/>
</svg>
