<svg width="512" height="512" viewBox="0 0 512 512" fill="none" xmlns="http://www.w3.org/2000/svg">
<path fill-rule="evenodd" clip-rule="evenodd" d="M256 144C194.25 144 144 194.25 144 256C144 317.75 194.25 368 256 368C317.75 368 368 317.75 368 256C368 194.25 317.75 144 256 144ZM256 336C211.812 336 176 300.188 176 256C176 211.812 211.812 176 256 176C300.188 176 336 211.812 336 256C336 300.188 300.188 336 256 336ZM256 112C264.833 112 272 104.833 272 96V64C272 55.167 264.833 48 256 48C247.167 48 240 55.167 240 64V96C240 104.833 247.167 112 256 112ZM256 400C247.167 400 240 407.167 240 416V448C240 456.833 247.167 464 256 464C264.833 464 272 456.833 272 448V416C272 407.167 264.833 400 256 400ZM380.438 154.167L403.063 131.542C409.313 125.292 409.313 115.167 403.063 108.917C396.813 102.667 386.688 102.667 380.438 108.917L357.813 131.542C351.563 137.792 351.563 147.917 357.813 154.167C364.062 160.417 374.188 160.417 380.438 154.167ZM131.562 357.834L108.937 380.459C102.687 386.708 102.687 396.833 108.937 403.083C115.187 409.333 125.312 409.333 131.562 403.083L154.187 380.459C160.437 374.188 160.437 364.083 154.187 357.834C147.938 351.583 137.812 351.562 131.562 357.834ZM112 256C112 247.167 104.833 240 96 240H64C55.167 240 48 247.167 48 256C48 264.833 55.167 272 64 272H96C104.833 272 112 264.833 112 256ZM448 240H416C407.167 240 400 247.167 400 256C400 264.833 407.167 272 416 272H448C456.833 272 464 264.833 464 256C464 247.167 456.833 240 448 240ZM131.541 154.167C137.792 160.417 147.917 160.417 154.166 154.167C160.417 147.917 160.417 137.792 154.166 131.542L131.541 108.917C125.291 102.667 115.167 102.667 108.916 108.917C102.666 115.167 102.666 125.292 108.916 131.542L131.541 154.167ZM380.459 357.812C374.188 351.562 364.083 351.562 357.834 357.812C351.583 364.062 351.563 374.187 357.834 380.437L380.459 403.062C386.708 409.312 396.833 409.312 403.083 403.062C409.333 396.812 409.333 386.688 403.083 380.437L380.459 357.812Z" fill="white"/>
</svg>
