<svg width="512" height="512" viewBox="0 0 512 512" fill="none" xmlns="http://www.w3.org/2000/svg">
<path d="M512 240.001C512 190.834 472 150.855 422.833 150.855C420.437 150.855 418.062 150.959 415.687 151.146C392.562 122.292 357.708 105.168 319.999 105.168C282.311 105.168 247.437 122.292 224.311 151.147C221.936 150.959 219.54 150.856 217.123 150.856C168 150.855 128 190.834 128 240.001C128 245.147 128.688 250.105 129.5 255.043C128.958 255.751 128.312 256.397 127.792 257.126C122.563 256.376 117.313 256.001 112 256.001C50.25 256.001 0 306.25 0 368C0 429.751 50.25 480 112 480C125.688 480 139.084 477.5 151.709 472.667C180.666 497.917 217.5 512 256 512C294.542 512 331.333 497.917 360.291 472.667C372.916 477.5 386.312 480 400 480C461.75 480 512 429.751 512 368C512 342.312 502.958 318.917 488.334 300.001C502.916 284.105 512 263.168 512 240.001ZM400 448C382.875 448 367.084 442.501 354.062 433.334C330.583 461.625 295.624 480 256 480C216.375 480 181.416 461.625 157.938 433.334C144.938 442.501 129.126 448 112 448C67.812 448 32 412.188 32 368C32 323.812 67.812 288.001 112 288.001C122.812 288.001 133.062 290.189 142.438 294.063C143 293.001 143.688 292.063 144.25 291.042C149.875 280.771 156.812 271.354 164.916 263C188 239.084 220.083 224 256 224C305.709 224 348.334 252.666 369.541 294.062C375.187 291.75 381.209 290.249 387.416 289.25L400 288C412.334 288 423.875 291.042 434.312 296C445.624 301.416 455.333 309.374 462.958 319.188C473.458 332.709 480 349.542 480 368C480 412.188 444.188 448 400 448ZM465.562 277.625C447.083 264.167 424.562 256.001 400 256.001C394.688 256.001 389.438 256.376 384.208 257.126C354.334 216.418 307.187 192.001 256 192.001C221.875 192.001 189.688 203.043 163.062 222.335C170.541 199.481 191.791 182.856 217.124 182.856C224.874 182.856 232.186 184.418 238.874 187.188C254.062 157.626 284.499 137.168 319.999 137.168C355.499 137.168 385.957 157.625 401.083 187.188C407.812 184.418 415.166 182.856 422.832 182.856C454.416 182.856 479.999 208.439 479.999 240.002C480 254.48 474.438 267.542 465.562 277.625Z" fill="white"/>
</svg>
