<?xml version="1.0" encoding="UTF-8" standalone="no"?>
<!-- Created with Inkscape (http://www.inkscape.org/) -->
<svg xmlns:inkscape="http://www.inkscape.org/namespaces/inkscape"
    xmlns:rdf="http://www.w3.org/1999/02/22-rdf-syntax-ns#" xmlns="http://www.w3.org/2000/svg"
    xmlns:cc="http://creativecommons.org/ns#" xmlns:dc="http://purl.org/dc/elements/1.1/"
    xmlns:sodipodi="http://sodipodi.sourceforge.net/DTD/sodipodi-0.dtd" xmlns:svg="http://www.w3.org/2000/svg"
    xmlns:ns1="http://sozi.baierouge.fr" xmlns:xlink="http://www.w3.org/1999/xlink" id="svg2"
    sodipodi:docname="New document 1" viewBox="0 0 150 150" version="1.1" inkscape:version="0.48.0 r9654">

    <g id="layer1" inkscape:label="Layer 1" inkscape:groupmode="layer" transform="translate(0 -902.36)">
        <path id="path3017" style="fill-rule:evenodd;fill:#6c757d" inkscape:connector-curvature="0"
            d="m80.444 988.84c-4.3279-4.3279-8.6557-8.6558-12.984-12.984-4.3355 8.6634-8.671 17.327-13.006 25.99 8.6633-4.3355 17.327-8.671 25.99-13.006zm6.9529 0.54512 20.456-40.911-40.911 20.456-20.456 40.911zm-15.534-65.559c-33.539 1.1165-59.499 40.305-46.152 71.406 9.3654 26.012 41.403 42.226 67.374 31.818 24.477-8.378 41.216-36.218 34.408-61.752-5.2645-24.298-28.876-43.488-54.07-41.502l-0.94171 0.0178-0.61828 0.0117zm71.9 52.998c0 37.626-30.502 68.129-68.129 68.129-37.626 0-68.129-30.502-68.129-68.129 0-37.626 30.502-68.129 68.129-68.129 37.626 0 68.129 30.502 68.129 68.129z" />
    </g>

</svg>