<svg width="512" height="512" viewBox="0 0 512 512" fill="none" xmlns="http://www.w3.org/2000/svg">
<g clip-path="url(#clip0_1617_163)">
<path d="M400 64C394.688 64 389.438 64.375 384.208 65.125C354.334 24.417 307.188 0 256 0C204.812 0 157.688 24.417 127.792 65.125C122.562 64.375 117.312 64 112 64C50.25 64 0 114.25 0 176C0 237.75 50.25 288 112 288C125.688 288 139.084 285.5 151.709 280.667C180.666 305.917 217.5 320 256 320C294.542 320 331.333 305.917 360.291 280.667C372.916 285.5 386.312 288 400 288C461.75 288 512 237.75 512 176C512 114.25 461.75 64 400 64ZM400 256C390.291 256 380.791 254.25 371.75 250.792L353.75 243.875L339.25 256.542C316 276.833 286.438 288 256 288C225.562 288 196 276.833 172.75 256.542L158.25 243.875L140.25 250.792C131.25 254.25 121.709 256 112 256C67.875 256 32 220.104 32 176C32 131.896 67.875 96 112 96C115.792 96 119.5 96.271 123.25 96.792L142.208 99.542L153.562 84.084C177.875 50.979 215.209 32 256 32C296.812 32 334.125 50.958 358.417 84.063L369.792 99.542L388.791 96.792C392.5 96.271 396.208 96 400 96C444.125 96 480 131.896 480 176C480 220.104 444.125 256 400 256ZM96 320C78.312 320 64 334.312 64 352C64 369.688 78.312 384 96 384C113.688 384 128 369.688 128 352C128 334.312 113.688 320 96 320ZM256 352C238.312 352 224 366.312 224 384C224 401.688 238.312 416 256 416C273.688 416 288 401.688 288 384C288 366.312 273.688 352 256 352ZM416 320C398.312 320 384 334.312 384 352C384 369.688 398.312 384 416 384C433.688 384 448 369.688 448 352C448 334.312 433.688 320 416 320ZM352 448C334.312 448 320 462.312 320 480C320 497.688 334.312 512 352 512C369.688 512 384 497.688 384 480C384 462.312 369.688 448 352 448ZM160 448C142.312 448 128 462.312 128 480C128 497.688 142.312 512 160 512C177.688 512 192 497.688 192 480C192 462.312 177.688 448 160 448Z" fill="white"/>
</g>
<defs>
<clipPath id="clip0_1617_163">
<rect width="512" height="512" fill="white"/>
</clipPath>
</defs>
</svg>
