<svg width="512" height="512" viewBox="0 0 512 512" fill="none" xmlns="http://www.w3.org/2000/svg">
<g clip-path="url(#clip0_1617_11)">
<path fill-rule="evenodd" clip-rule="evenodd" d="M400 64C394.688 64 389.438 64.375 384.208 65.125C354.334 24.417 307.188 0 256 0C204.812 0 157.688 24.417 127.792 65.125C122.562 64.375 117.312 64 112 64C50.25 64 0 114.25 0 176C0 237.75 50.25 288 112 288C125.688 288 139.084 285.5 151.709 280.667C180.666 305.917 217.5 320 256 320C294.542 320 331.333 305.917 360.291 280.667C372.916 285.5 386.312 288 400 288C461.75 288 512 237.75 512 176C512 114.25 461.75 64 400 64ZM400 256C382.875 256 367.084 250.5 354.062 241.333C330.584 269.625 295.624 288 256 288C216.375 288 181.416 269.625 157.938 241.333C144.938 250.5 129.125 256 112 256C67.812 256 32 220.188 32 176C32 131.812 67.812 96 112 96C122.812 96 133.062 98.208 142.438 102.083C163.667 60.667 206.291 32 256 32C305.709 32 348.334 60.667 369.541 102.083C378.938 98.208 389.209 96 400 96C444.188 96 480 131.812 480 176C480 220.188 444.188 256 400 256ZM225 480C225 497.688 239.312 512 257 512C274.688 512 289 497.688 289 480C289 462.312 257 416 257 416C257 416 225 462.312 225 480ZM352 448C352 465.688 366.312 480 384 480C401.688 480 416 465.688 416 448C416 430.312 384 384 384 384C384 384 352 430.312 352 448ZM96 384C96 401.688 110.312 416 128 416C145.688 416 160 401.688 160 384C160 366.312 128 320 128 320C128 320 96 366.312 96 384Z" fill="white"/>
</g>
<defs>
<clipPath id="clip0_1617_11">
<rect width="512" height="512" fill="white"/>
</clipPath>
</defs>
</svg>
