<svg width="512" height="512" viewBox="0 0 512 512" fill="none" xmlns="http://www.w3.org/2000/svg">
<g clip-path="url(#clip0_1617_202)">
<path fill-rule="evenodd" clip-rule="evenodd" d="M326.042 443.688L308.042 433.312C308.584 430.188 309 427.001 309 423.688C309 420.376 308.584 417.188 308 414.063L326.042 403.667C334.459 398.75 337.333 387.938 332.5 379.563C327.624 371.084 316.833 368.188 308.375 373.063L290.187 383.563C285.311 379.417 279.812 376.167 273.687 373.959V353.063C273.687 343.292 265.749 335.375 255.999 335.375C246.249 335.375 238.333 343.292 238.333 353.063V373.938C232.207 376.126 226.687 379.417 221.812 383.563L203.666 373.063C195.187 368.188 184.374 371.063 179.499 379.542C174.624 387.959 177.561 398.792 185.999 403.668L203.958 414.043C203.374 417.189 202.999 420.377 202.999 423.689C202.999 427.002 203.374 430.189 203.958 433.313L186 443.688C177.541 448.563 174.625 459.438 179.5 467.876C184.375 476.314 195.188 479.188 203.625 474.314L221.792 463.876C226.666 468.001 232.188 471.251 238.334 473.438V494.376C238.334 504.125 246.25 512 256 512C265.75 512 273.688 504.125 273.688 494.376V473.438C279.813 471.25 285.376 468 290.209 463.813L308.376 474.313C316.834 479.188 327.625 476.313 332.501 467.875C337.375 459.438 334.5 448.625 326.042 443.688ZM256 441.375C246.25 441.375 238.312 433.437 238.312 423.687C238.312 413.937 246.25 406.041 256 406.041C265.75 406.041 273.667 413.937 273.667 423.687C273.667 433.437 265.75 441.375 256 441.375ZM474.166 396.25L462.083 393.042C461.792 389.209 460.875 385.563 459.187 382.063L467.958 373.292C472.083 369.167 472.062 362.5 467.958 358.438C463.875 354.334 457.25 354.313 453.125 358.438L444.334 367.188C440.875 365.563 437.188 364.626 433.375 364.313L430.166 352.251C428.667 346.668 422.916 343.313 417.292 344.813C411.688 346.334 408.417 352.084 409.875 357.688L413.084 369.584C411.5 370.668 410 371.876 408.584 373.251C407.209 374.668 406.042 376.167 404.958 377.71L393.062 374.501C387.458 373.002 381.666 376.377 380.166 381.939C378.667 387.564 382.042 393.293 387.583 394.814L399.583 398.043C399.917 401.814 400.875 405.501 402.562 409.002L393.75 417.814C389.667 421.918 389.688 428.543 393.792 432.626C397.875 436.709 404.5 436.751 408.584 432.668L417.416 423.835C420.875 425.542 424.584 426.501 428.417 426.792L431.583 438.813C433.125 444.417 438.833 447.751 444.459 446.251C450.042 444.751 453.416 439.002 451.917 433.334L448.708 421.438C450.208 420.376 451.75 419.188 453.167 417.813C454.542 416.417 455.709 414.875 456.791 413.334L468.708 416.543C474.312 418.043 480.083 414.689 481.562 409.126C483.062 403.541 479.75 397.792 474.166 396.25ZM438.312 402.938C434.187 407.063 427.541 407.042 423.437 402.938C419.375 398.876 419.333 392.209 423.437 388.084C427.541 384.001 434.208 384.001 438.312 388.084C442.375 392.188 442.375 398.875 438.312 402.938ZM118.938 342.5L107.063 345.688C105.959 344.188 104.813 342.667 103.417 341.25C102.001 339.875 100.501 338.688 98.938 337.625L102.126 325.687C103.626 320.083 100.292 314.312 94.751 312.833C89.126 311.333 83.376 314.667 81.876 320.25L78.626 332.312C74.814 332.624 71.168 333.562 67.688 335.208L58.876 326.437C54.751 322.312 48.126 322.333 44.042 326.437C39.938 330.541 39.938 337.187 44.042 341.291L52.813 350.062C51.167 353.562 50.209 357.25 49.917 361.041L37.875 364.249C32.25 365.791 28.916 371.499 30.417 377.124C31.938 382.707 37.688 385.999 43.313 384.541L55.188 381.311C56.25 382.915 57.438 384.416 58.876 385.812C60.251 387.187 61.751 388.416 63.314 389.437L60.126 401.333C58.626 406.958 61.96 412.75 67.542 414.25C73.168 415.75 78.876 412.417 80.376 406.812L83.626 394.812C87.438 394.5 91.126 393.541 94.626 391.874L103.417 400.666C107.501 404.79 114.126 404.707 118.251 400.624C122.313 396.562 122.376 389.916 118.251 385.812L109.439 377C111.127 373.54 112.127 369.812 112.377 365.999L124.439 362.811C130.001 361.29 133.335 355.561 131.835 349.936C130.334 344.376 124.584 341.042 118.938 342.5ZM88.562 370.958C84.458 375.062 77.812 375.062 73.687 370.958C69.625 366.875 69.625 360.187 73.687 356.125C77.812 352.042 84.458 352.042 88.562 356.125C92.666 360.208 92.625 366.875 88.562 370.958ZM512 176C512 114.25 461.75 64 400 64C394.688 64 389.438 64.375 384.208 65.125C354.334 24.417 307.188 0 256 0C204.812 0 157.688 24.417 127.792 65.125C122.562 64.375 117.312 64 112 64C50.25 64 0 114.25 0 176C0 237.75 50.25 288 112 288C125.688 288 139.084 285.5 151.709 280.667C180.666 305.917 217.5 320 256 320C294.542 320 331.333 305.917 360.291 280.667C372.916 285.5 386.312 288 400 288C461.75 288 512 237.75 512 176ZM354.062 241.333C330.584 269.625 295.624 288 256 288C216.375 288 181.416 269.625 157.938 241.333C144.938 250.5 129.125 256 112 256C67.812 256 32 220.188 32 176C32 131.812 67.812 96 112 96C122.812 96 133.062 98.208 142.438 102.083C163.667 60.667 206.291 32 256 32C305.709 32 348.334 60.667 369.541 102.083C378.938 98.208 389.209 96 400 96C444.188 96 480 131.812 480 176C480 220.188 444.188 256 400 256C382.875 256 367.084 250.5 354.062 241.333Z" fill="white"/>
</g>
<defs>
<clipPath id="clip0_1617_202">
<rect width="512" height="512" fill="white"/>
</clipPath>
</defs>
</svg>
