<svg width="512" height="512" viewBox="0 0 512 512" fill="none" xmlns="http://www.w3.org/2000/svg">
<g clip-path="url(#clip0_1617_241)">
<path d="M192 384L224 416L192 512L288 416L256 384L288 320L192 384ZM512 134.833C512 85.687 472 45.709 422.833 45.709C420.437 45.709 418.062 45.792 415.687 45.979C392.562 17.146 357.709 0 320 0C282.312 0 247.438 17.146 224.312 45.979C221.937 45.792 219.541 45.709 217.124 45.709C168 45.709 128 85.688 128 134.833C128 139.979 128.688 144.958 129.5 149.875C128.958 150.583 128.312 151.229 127.792 151.958C122.563 151.208 117.313 150.833 112 150.833C50.25 150.833 0 201.083 0 262.833C0 324.584 50.25 374.833 112 374.833C125.688 374.833 139.084 372.334 151.709 367.5C152.813 368.459 154.125 369.125 155.25 370.062L183.562 351.187C174.124 344.499 165.312 337.062 157.937 328.187C144.937 337.333 129.125 342.833 111.999 342.833C67.811 342.833 31.999 307.042 31.999 262.833C31.999 218.666 67.811 182.833 111.999 182.833C122.811 182.833 133.061 185.042 142.437 188.916C142.999 187.833 143.687 186.916 144.249 185.874C149.874 175.603 156.811 166.207 164.915 157.832C187.999 133.936 220.082 118.832 255.999 118.832C305.708 118.832 348.333 147.499 369.54 188.915C375.186 186.582 381.208 185.082 387.415 184.082L399.999 182.832C412.333 182.832 423.874 185.874 434.311 190.832C445.623 196.249 455.332 204.207 462.957 214.04C473.457 227.561 479.999 244.374 479.999 262.832C479.999 307.041 444.187 342.832 399.999 342.832C382.874 342.832 367.083 337.332 354.061 328.186C340.061 345.061 321.623 357.748 300.915 365.748L294.936 377.686L313.186 395.936C330.248 389.29 346.207 379.748 360.29 367.498C372.915 372.332 386.311 374.831 399.999 374.831C461.749 374.831 511.999 324.582 511.999 262.831C511.999 237.165 502.957 213.748 488.333 194.831C502.916 178.958 512 158.021 512 134.833ZM465.562 172.458C447.083 159.02 424.562 150.833 400 150.833C394.688 150.833 389.438 151.208 384.208 151.958C354.334 111.271 307.188 86.833 256 86.833C221.875 86.833 189.688 97.895 163.062 117.187C170.541 94.334 191.791 77.709 217.124 77.709C224.874 77.709 232.186 79.271 238.874 82.042C254.062 52.458 284.5 32 320 32C355.5 32 385.958 52.458 401.084 82.042C407.813 79.271 415.167 77.709 422.833 77.709C454.417 77.709 480 103.292 480 134.833C480 149.333 474.438 162.396 465.562 172.458Z" fill="white"/>
</g>
<defs>
<clipPath id="clip0_1617_241">
<rect width="512" height="512" fill="white"/>
</clipPath>
</defs>
</svg>
