<?xml version="1.0" encoding="utf-8"?>
<svg viewBox="0 0 512 512" xmlns="http://www.w3.org/2000/svg" xmlns:bx="https://boxy-svg.com">
  <g>
    <path fill="#7A7673" d="M 512 256 C 512 114.604 397.396 0 256 0 C 114.625 0 0 114.604 0 256 C 0 397.375 114.625 512 256 512 C 397.396 512 512 397.375 512 256 Z M 64 256 C 64 150.125 150.125 64 256 64 C 361.875 64 448 150.125 448 256 C 448 361.875 361.875 448 256 448 C 150.125 448 64 361.875 64 256 Z M 160 160 L 224 288 L 352 352 L 288 224 L 160 160 Z" transform="matrix(0.707107, 0.707107, -0.707107, 0.707107, 255.999878, -106.038672)"/>
    <path d="M 255.96 121.229 L 301.683 256.219 L 210.236 256.219 L 255.96 121.229 Z" style="opacity: 0.3; fill: rgb(255, 0, 0); stroke: rgba(255, 255, 255, 0);" bx:shape="triangle 210.236 121.229 91.447 134.99 0.5 0 1@15048e50"/>
  </g>
</svg>
