<?xml version="1.0" encoding="utf-8"?>
<svg width="512" height="512" viewBox="0 0 135.467 135.467" version="1.1" id="svg8" xmlns="http://www.w3.org/2000/svg">
  <defs id="defs2">
    <clipPath id="clip-1">
      <circle r="735" transform="matrix(0.032475922257, 0, 0, 0.032524481416, 67.733390808105, 67.662048339844)"/>
    </clipPath>
  </defs>
  <g>
    <g transform="matrix(0.978831529617, 0, 0, 0.978831529617, -28.287313461304, -37.281913757324)" id="g4684">
      <circle style="fill-opacity: 1; stroke: none; stroke-width: 336.559; stroke-miterlimit: 4; stroke-dasharray: none; stroke-opacity: 1; fill: rgb(0, 155, 58);" id="path4679" cx="98.097542" cy="107.28635" r="69.198166"/>
    </g>
    <path d="M 11.128 67.733 L 67.733 103.879 L 124.339 67.733 L 67.733 31.587 Z" style="fill: rgb(254, 223, 0);"/>
    <circle r="23.87" cx="67.733" cy="67.733" style="fill: rgb(0, 39, 118);"/>
    <path d="M -3.876 115.473 C -3.876 70.848 44.432 42.957 83.078 65.27 C 101.014 75.625 112.063 94.762 112.063 115.473 L 108.653 115.473 C 108.653 73.473 63.187 47.222 26.814 68.223 C 9.933 77.969 -0.466 95.98 -0.466 115.473 Z" clip-path="url(#clip-1)" fill="#fff" style=""/>
    <g transform="matrix(0.032475877553, 0, 0, 0.032475877553, 54.093769073486, 115.472808837891)" fill="#009b3a" style="">
      <path d="m -206.87321,-1684.8471 a 35,31.5 83 0 0 -8.53086,-69.4782 35,31.5 83 0 0 8.53086,69.4782 m -1.58431,-12.9031 a 22,18.5 83 0 0 -5.36225,-43.672 22,18.5 83 0 0 5.36225,43.672" fill-rule="evenodd"/>
      <g transform="rotate(-4,-24305.02,848.74999)">
        <path d="m -31.5,0 h 13 v -26 h 28 a 22,22 0 0 0 0,-44 h -40 z m 13,-39 h 27 a 9,9 0 0 0 0,-18 h -27 z" fill-rule="evenodd"/>
        <path d="m 28,0 c 0,-10 0,-32 -15,-32 H -6 c 22,0 22,22 22,32"/>
      </g>
      <path d="m -61.120663,-1696.6917 32.994974,-0.5759 a 30,30 0 0 0 29.4718588,-30.519 l -0.174524,-9.9985 a 30,30 0 0 0 -30.5190028,-29.4719 l -32.994974,0.576 z m 12.771139,-13.2249 18.997106,-0.3316 a 19,19 0 0 0 18.665511,-19.3287 l -0.104715,-5.9991 a 19,19 0 0 0 -19.328702,-18.6655 l -18.997106,0.3316 z" fill-rule="evenodd"/>
      <path d="m 27.761085,-1697.5653 62.961622,2.1987 0.453694,-12.9921 -50.968932,-1.7799 0.62819,-17.989 39.975634,1.396 0.418794,-11.9927 -39.975634,-1.396 0.488593,-13.9914 47.97076,1.6751 0.453694,-12.9921 -59.96345,-2.0939 z"/>
      <path d="m 116.56674,-1693.7859 11.95434,1.0459 4.18347,-47.8174 9.76325,49.0375 10.95814,0.9588 18.13021,-46.5972 -4.18348,47.8173 11.95434,1.0459 6.1009,-69.7336 -17.43341,-1.5252 -18.1302,46.5971 -9.76325,-49.0375 -17.43341,-1.5252 z"/>
      <path d="m 261.59994,-1677.4268 51.74169,8.8908 2.03219,-11.8267 -39.91502,-6.8586 2.7096,-15.7689 32.52335,5.5885 2.03219,-11.8267 -32.52335,-5.5885 1.86284,-10.8411 38.68308,6.647 2.03219,-11.8267 -50.50974,-8.6792 z"/>
      <path d="m 394.52341,-1651.3176 12.58592,3.255 6.50988,-25.1719 27.10813,7.0107 a 22.000002,22.000002 0 0 0 11.01672,-42.5985 l -38.7259,-10.0152 z m 22.35074,-34.5028 26.13998,6.7603 a 9.0000206,9.0000206 0 0 0 4.50684,-17.4267 l -26.13998,-6.7603 z" fill-rule="evenodd"/>
      <g transform="rotate(17.5,5514.4173,848.75)">
        <path d="m -31.5,0 h 13 v -26 h 28 a 22,22 0 0 0 0,-44 h -40 z m 13,-39 h 27 a 9,9 0 0 0 0,-18 h -27 z" fill-rule="evenodd"/>
        <path d="m 28,0 c 0,-10 0,-32 -15,-32 H -6 c 22,0 22,22 22,32"/>
      </g>
      <path d="m 594.47703,-1590.001 a 31.50002,35.000022 20.5 0 0 24.51452,-65.5671 31.50002,35.000022 20.5 0 0 -24.51452,65.5671 m 4.55269,-12.1768 a 18.50001,22.000012 20.5 0 0 15.40913,-41.2136 18.50001,22.000012 20.5 0 0 -15.40913,41.2136" fill-rule="evenodd"/>
      <g transform="rotate(23.5,4080.523,848.75)">
        <path d="M 0,0 A 31.5,35 0 0 0 0,-70 31.5,35 0 0 0 0,0 m 0,-13 a 18.5,22 0 0 0 0,-44 18.5,22 0 0 0 0,44" fill-rule="evenodd"/>
        <path d="m 5,-35 h 26.5 v 10 H 5 Z"/>
        <path d="m 21.5,-35 h 10 V 0 h -10 z"/>
      </g>
      <g transform="rotate(26.5,3604.5124,848.75)">
        <path d="m -31.5,0 h 13 v -26 h 28 a 22,22 0 0 0 0,-44 h -40 z m 13,-39 h 27 a 9,9 0 0 0 0,-18 h -27 z" fill-rule="evenodd"/>
        <path d="m 28,0 c 0,-10 0,-32 -15,-32 H -6 c 22,0 22,22 22,32"/>
      </g>
      <path d="m 808.47279,-1492.9401 54.83241,31.0226 6.4015,-11.3146 -44.38814,-25.1136 8.86363,-15.6664 34.81423,19.697 5.90908,-10.4443 -34.81423,-19.6969 6.89393,-12.185 41.77707,23.6363 6.40151,-11.3146 -52.22134,-29.5454 z"/>
      <path d="m 910.60326,-1458.6741 c -3.7611,5.9038 0.0512,12.4824 8.48516,17.8554 8.43391,5.373 14.17781,5.1788 16.6041,1.3889 7.65652,-12.0183 -36.60773,-29.5466 -22.96439,-50.497 11.76279,-17.9986 31.88858,-3.9914 39.4791,0.8443 7.59052,4.8357 19.77898,17.3434 10.29971,31.7576 l -12.86172,-8.1939 c 4.02975,-6.3254 -0.39642,-12.4058 -7.14355,-16.7042 -6.53628,-4.1641 -11.84656,-6.065 -15.74198,0.05 -6.52412,9.7755 36.85766,28.2237 23.55949,49.0976 -9.80572,15.3919 -26.86731,8.6724 -38.2531,1.4188 -9.699,-6.1789 -24.19115,-20.747 -14.74624,-35.4795 z"/>
      <path d="m 985.69641,-1409.0177 c -4.06492,5.6988 -0.6021,12.468 7.53906,18.275 8.14113,5.807 13.88733,5.9137 16.50863,2.256 8.275,-11.6012 -35.01119,-31.422 -20.29009,-51.6297 12.68869,-17.3583 32.05379,-2.317 39.38079,2.9093 7.3271,5.2264 18.8442,18.3548 8.6236,32.2531 l -12.4153,-8.8557 c 4.3553,-6.1059 0.2534,-12.4096 -6.2595,-17.0553 -6.3094,-4.5004 -11.5129,-6.6766 -15.723,-0.7743 -7.02683,9.4207 35.33,30.114 20.9576,50.2633 -10.5978,14.8576 -27.28437,7.2544 -38.27493,-0.5851 -9.36233,-6.6781 -23.07219,-21.9847 -12.86918,-36.2027 z"/>
      <path d="m 1056.7186,-1328.4773 a 31.500003,35.000004 38.5 0 0 43.576,-54.7826 31.500003,35.000004 38.5 0 0 -43.576,54.7826 m 8.0927,-10.174 a 18.5,22 38.5 0 0 27.3906,-34.4347 18.5,22 38.5 0 0 -27.3906,34.4347" fill-rule="evenodd"/>
    </g>
    <g transform="matrix(1.022990226746, 0, 0, 1.022990226746, 48.248123168945, 63.44645690918)" fill="#fff" style="">
      <path d="M 0,-1 V 0 H 0.5" transform="rotate(18,0,-1)"/>
      <path d="m 0,-1 0.30901699,0.95105652 -0.47552825,0.15450849"/>
      <g transform="rotate(72)">
        <path transform="rotate(18,0,-1)" d="M 0,-1 V 0 H 0.5"/>
        <path d="m 0,-1 0.30901699,0.95105652 -0.47552825,0.15450849"/>
      </g>
      <g transform="rotate(-72)">
        <path transform="rotate(18,0,-1)" d="M 0,-1 V 0 H 0.5"/>
        <path d="m 0,-1 0.30901699,0.95105652 -0.47552825,0.15450849"/>
      </g>
      <g transform="rotate(144)">
        <path transform="rotate(18,0,-1)" d="M 0,-1 V 0 H 0.5"/>
        <path d="m 0,-1 0.30901699,0.95105652 -0.47552825,0.15450849"/>
      </g>
      <g transform="rotate(-144)">
        <path transform="rotate(18,0,-1)" d="M 0,-1 V 0 H 0.5"/>
        <path d="m 0,-1 0.30901699,0.95105652 -0.47552825,0.15450849"/>
      </g>
    </g>
    <g transform="matrix(1.022990226746, 0, 0, 1.022990226746, 50.359062194824, 73.481513977051)" fill="#fff" style="">
      <path d="M 0,-1 V 0 H 0.5" transform="rotate(18,0,-1)"/>
      <path d="m 0,-1 0.30901699,0.95105652 -0.47552825,0.15450849"/>
      <g transform="rotate(72)">
        <path transform="rotate(18,0,-1)" d="M 0,-1 V 0 H 0.5"/>
        <path d="m 0,-1 0.30901699,0.95105652 -0.47552825,0.15450849"/>
      </g>
      <g transform="rotate(-72)">
        <path transform="rotate(18,0,-1)" d="M 0,-1 V 0 H 0.5"/>
        <path d="m 0,-1 0.30901699,0.95105652 -0.47552825,0.15450849"/>
      </g>
      <g transform="rotate(144)">
        <path transform="rotate(18,0,-1)" d="M 0,-1 V 0 H 0.5"/>
        <path d="m 0,-1 0.30901699,0.95105652 -0.47552825,0.15450849"/>
      </g>
      <g transform="rotate(-144)">
        <path transform="rotate(18,0,-1)" d="M 0,-1 V 0 H 0.5"/>
        <path d="m 0,-1 0.30901699,0.95105652 -0.47552825,0.15450849"/>
      </g>
    </g>
    <g transform="matrix(0.852491855621, 0, 0, 0.852491855621, 47.436218261719, 75.62491607666)" fill="#fff" style="">
      <path d="M 0,-1 V 0 H 0.5" transform="rotate(18,0,-1)"/>
      <path d="m 0,-1 0.30901699,0.95105652 -0.47552825,0.15450849"/>
      <g transform="rotate(72)">
        <path transform="rotate(18,0,-1)" d="M 0,-1 V 0 H 0.5"/>
        <path d="m 0,-1 0.30901699,0.95105652 -0.47552825,0.15450849"/>
      </g>
      <g transform="rotate(-72)">
        <path transform="rotate(18,0,-1)" d="M 0,-1 V 0 H 0.5"/>
        <path d="m 0,-1 0.30901699,0.95105652 -0.47552825,0.15450849"/>
      </g>
      <g transform="rotate(144)">
        <path transform="rotate(18,0,-1)" d="M 0,-1 V 0 H 0.5"/>
        <path d="m 0,-1 0.30901699,0.95105652 -0.47552825,0.15450849"/>
      </g>
      <g transform="rotate(-144)">
        <path transform="rotate(18,0,-1)" d="M 0,-1 V 0 H 0.5"/>
        <path d="m 0,-1 0.30901699,0.95105652 -0.47552825,0.15450849"/>
      </g>
    </g>
    <g transform="matrix(0.48713812232, 0, 0, 0.48713812232, 52.697311401367, 72.020095825195)" fill="#fff" style="">
      <path d="M 0,-1 V 0 H 0.5" transform="rotate(18,0,-1)"/>
      <path d="m 0,-1 0.30901699,0.95105652 -0.47552825,0.15450849"/>
      <g transform="rotate(72)">
        <path transform="rotate(18,0,-1)" d="M 0,-1 V 0 H 0.5"/>
        <path d="m 0,-1 0.30901699,0.95105652 -0.47552825,0.15450849"/>
      </g>
      <g transform="rotate(-72)">
        <path transform="rotate(18,0,-1)" d="M 0,-1 V 0 H 0.5"/>
        <path d="m 0,-1 0.30901699,0.95105652 -0.47552825,0.15450849"/>
      </g>
      <g transform="rotate(144)">
        <path transform="rotate(18,0,-1)" d="M 0,-1 V 0 H 0.5"/>
        <path d="m 0,-1 0.30901699,0.95105652 -0.47552825,0.15450849"/>
      </g>
      <g transform="rotate(-144)">
        <path transform="rotate(18,0,-1)" d="M 0,-1 V 0 H 0.5"/>
        <path d="m 0,-1 0.30901699,0.95105652 -0.47552825,0.15450849"/>
      </g>
    </g>
    <g transform="matrix(0.852491855621, 0, 0, 0.852491855621, 55.327857971191, 75.852249145508)" fill="#fff" style="">
      <path d="M 0,-1 V 0 H 0.5" transform="rotate(18,0,-1)"/>
      <path d="m 0,-1 0.30901699,0.95105652 -0.47552825,0.15450849"/>
      <g transform="rotate(72)">
        <path transform="rotate(18,0,-1)" d="M 0,-1 V 0 H 0.5"/>
        <path d="m 0,-1 0.30901699,0.95105652 -0.47552825,0.15450849"/>
      </g>
      <g transform="rotate(-72)">
        <path transform="rotate(18,0,-1)" d="M 0,-1 V 0 H 0.5"/>
        <path d="m 0,-1 0.30901699,0.95105652 -0.47552825,0.15450849"/>
      </g>
      <g transform="rotate(144)">
        <path transform="rotate(18,0,-1)" d="M 0,-1 V 0 H 0.5"/>
        <path d="m 0,-1 0.30901699,0.95105652 -0.47552825,0.15450849"/>
      </g>
      <g transform="rotate(-144)">
        <path transform="rotate(18,0,-1)" d="M 0,-1 V 0 H 0.5"/>
        <path d="m 0,-1 0.30901699,0.95105652 -0.47552825,0.15450849"/>
      </g>
    </g>
    <g transform="matrix(0.681993067265, 0, 0, 0.681993067265, 54.613380432129, 78.222991943359)" fill="#fff" style="">
      <path d="M 0,-1 V 0 H 0.5" transform="rotate(18,0,-1)"/>
      <path d="m 0,-1 0.30901699,0.95105652 -0.47552825,0.15450849"/>
      <g transform="rotate(72)">
        <path transform="rotate(18,0,-1)" d="M 0,-1 V 0 H 0.5"/>
        <path d="m 0,-1 0.30901699,0.95105652 -0.47552825,0.15450849"/>
      </g>
      <g transform="rotate(-72)">
        <path transform="rotate(18,0,-1)" d="M 0,-1 V 0 H 0.5"/>
        <path d="m 0,-1 0.30901699,0.95105652 -0.47552825,0.15450849"/>
      </g>
      <g transform="rotate(144)">
        <path transform="rotate(18,0,-1)" d="M 0,-1 V 0 H 0.5"/>
        <path d="m 0,-1 0.30901699,0.95105652 -0.47552825,0.15450849"/>
      </g>
      <g transform="rotate(-144)">
        <path transform="rotate(18,0,-1)" d="M 0,-1 V 0 H 0.5"/>
        <path d="m 0,-1 0.30901699,0.95105652 -0.47552825,0.15450849"/>
      </g>
    </g>
    <g transform="matrix(1.022990226746, 0, 0, 1.022990226746, 75.138145446777, 60.32878112793)" fill="#fff" style="">
      <path d="M 0,-1 V 0 H 0.5" transform="rotate(18,0,-1)"/>
      <path d="m 0,-1 0.30901699,0.95105652 -0.47552825,0.15450849"/>
      <g transform="rotate(72)">
        <path transform="rotate(18,0,-1)" d="M 0,-1 V 0 H 0.5"/>
        <path d="m 0,-1 0.30901699,0.95105652 -0.47552825,0.15450849"/>
      </g>
      <g transform="rotate(-72)">
        <path transform="rotate(18,0,-1)" d="M 0,-1 V 0 H 0.5"/>
        <path d="m 0,-1 0.30901699,0.95105652 -0.47552825,0.15450849"/>
      </g>
      <g transform="rotate(144)">
        <path transform="rotate(18,0,-1)" d="M 0,-1 V 0 H 0.5"/>
        <path d="m 0,-1 0.30901699,0.95105652 -0.47552825,0.15450849"/>
      </g>
      <g transform="rotate(-144)">
        <path transform="rotate(18,0,-1)" d="M 0,-1 V 0 H 0.5"/>
        <path d="m 0,-1 0.30901699,0.95105652 -0.47552825,0.15450849"/>
      </g>
    </g>
    <g transform="matrix(1.022990226746, 0, 0, 1.022990226746, 84.458717346191, 76.11205291748)" fill="#fff" style="">
      <path d="M 0,-1 V 0 H 0.5" transform="rotate(18,0,-1)"/>
      <path d="m 0,-1 0.30901699,0.95105652 -0.47552825,0.15450849"/>
      <g transform="rotate(72)">
        <path transform="rotate(18,0,-1)" d="M 0,-1 V 0 H 0.5"/>
        <path d="m 0,-1 0.30901699,0.95105652 -0.47552825,0.15450849"/>
      </g>
      <g transform="rotate(-72)">
        <path transform="rotate(18,0,-1)" d="M 0,-1 V 0 H 0.5"/>
        <path d="m 0,-1 0.30901699,0.95105652 -0.47552825,0.15450849"/>
      </g>
      <g transform="rotate(144)">
        <path transform="rotate(18,0,-1)" d="M 0,-1 V 0 H 0.5"/>
        <path d="m 0,-1 0.30901699,0.95105652 -0.47552825,0.15450849"/>
      </g>
      <g transform="rotate(-144)">
        <path transform="rotate(18,0,-1)" d="M 0,-1 V 0 H 0.5"/>
        <path d="m 0,-1 0.30901699,0.95105652 -0.47552825,0.15450849"/>
      </g>
    </g>
    <g transform="matrix(0.681993067265, 0, 0, 0.681993067265, 87.771270751953, 76.339385986328)" fill="#fff" style="">
      <path d="M 0,-1 V 0 H 0.5" transform="rotate(18,0,-1)"/>
      <path d="m 0,-1 0.30901699,0.95105652 -0.47552825,0.15450849"/>
      <g transform="rotate(72)">
        <path transform="rotate(18,0,-1)" d="M 0,-1 V 0 H 0.5"/>
        <path d="m 0,-1 0.30901699,0.95105652 -0.47552825,0.15450849"/>
      </g>
      <g transform="rotate(-72)">
        <path transform="rotate(18,0,-1)" d="M 0,-1 V 0 H 0.5"/>
        <path d="m 0,-1 0.30901699,0.95105652 -0.47552825,0.15450849"/>
      </g>
      <g transform="rotate(144)">
        <path transform="rotate(18,0,-1)" d="M 0,-1 V 0 H 0.5"/>
        <path d="m 0,-1 0.30901699,0.95105652 -0.47552825,0.15450849"/>
      </g>
      <g transform="rotate(-144)">
        <path transform="rotate(18,0,-1)" d="M 0,-1 V 0 H 0.5"/>
        <path d="m 0,-1 0.30901699,0.95105652 -0.47552825,0.15450849"/>
      </g>
    </g>
    <g transform="matrix(0.852491855621, 0, 0, 0.852491855621, 85.432998657227, 78.222991943359)" fill="#fff" style="">
      <path d="M 0,-1 V 0 H 0.5" transform="rotate(18,0,-1)"/>
      <path d="m 0,-1 0.30901699,0.95105652 -0.47552825,0.15450849"/>
      <g transform="rotate(72)">
        <path transform="rotate(18,0,-1)" d="M 0,-1 V 0 H 0.5"/>
        <path d="m 0,-1 0.30901699,0.95105652 -0.47552825,0.15450849"/>
      </g>
      <g transform="rotate(-72)">
        <path transform="rotate(18,0,-1)" d="M 0,-1 V 0 H 0.5"/>
        <path d="m 0,-1 0.30901699,0.95105652 -0.47552825,0.15450849"/>
      </g>
      <g transform="rotate(144)">
        <path transform="rotate(18,0,-1)" d="M 0,-1 V 0 H 0.5"/>
        <path d="m 0,-1 0.30901699,0.95105652 -0.47552825,0.15450849"/>
      </g>
      <g transform="rotate(-144)">
        <path transform="rotate(18,0,-1)" d="M 0,-1 V 0 H 0.5"/>
        <path d="m 0,-1 0.30901699,0.95105652 -0.47552825,0.15450849"/>
      </g>
    </g>
    <g transform="matrix(0.852491855621, 0, 0, 0.852491855621, 79.684768676758, 83.224266052246)" fill="#fff" style="">
      <path d="M 0,-1 V 0 H 0.5" transform="rotate(18,0,-1)"/>
      <path d="m 0,-1 0.30901699,0.95105652 -0.47552825,0.15450849"/>
      <g transform="rotate(72)">
        <path transform="rotate(18,0,-1)" d="M 0,-1 V 0 H 0.5"/>
        <path d="m 0,-1 0.30901699,0.95105652 -0.47552825,0.15450849"/>
      </g>
      <g transform="rotate(-72)">
        <path transform="rotate(18,0,-1)" d="M 0,-1 V 0 H 0.5"/>
        <path d="m 0,-1 0.30901699,0.95105652 -0.47552825,0.15450849"/>
      </g>
      <g transform="rotate(144)">
        <path transform="rotate(18,0,-1)" d="M 0,-1 V 0 H 0.5"/>
        <path d="m 0,-1 0.30901699,0.95105652 -0.47552825,0.15450849"/>
      </g>
      <g transform="rotate(-144)">
        <path transform="rotate(18,0,-1)" d="M 0,-1 V 0 H 0.5"/>
        <path d="m 0,-1 0.30901699,0.95105652 -0.47552825,0.15450849"/>
      </g>
    </g>
    <g transform="matrix(0.681993067265, 0, 0, 0.681993067265, 79.652297973633, 85.627487182617)" fill="#fff" style="">
      <path d="M 0,-1 V 0 H 0.5" transform="rotate(18,0,-1)"/>
      <path d="m 0,-1 0.30901699,0.95105652 -0.47552825,0.15450849"/>
      <g transform="rotate(72)">
        <path transform="rotate(18,0,-1)" d="M 0,-1 V 0 H 0.5"/>
        <path d="m 0,-1 0.30901699,0.95105652 -0.47552825,0.15450849"/>
      </g>
      <g transform="rotate(-72)">
        <path transform="rotate(18,0,-1)" d="M 0,-1 V 0 H 0.5"/>
        <path d="m 0,-1 0.30901699,0.95105652 -0.47552825,0.15450849"/>
      </g>
      <g transform="rotate(144)">
        <path transform="rotate(18,0,-1)" d="M 0,-1 V 0 H 0.5"/>
        <path d="m 0,-1 0.30901699,0.95105652 -0.47552825,0.15450849"/>
      </g>
      <g transform="rotate(-144)">
        <path transform="rotate(18,0,-1)" d="M 0,-1 V 0 H 0.5"/>
        <path d="m 0,-1 0.30901699,0.95105652 -0.47552825,0.15450849"/>
      </g>
    </g>
    <g transform="matrix(0.681993067265, 0, 0, 0.681993067265, 82.055503845215, 81.340667724609)" fill="#fff" style="">
      <path d="M 0,-1 V 0 H 0.5" transform="rotate(18,0,-1)"/>
      <path d="m 0,-1 0.30901699,0.95105652 -0.47552825,0.15450849"/>
      <g transform="rotate(72)">
        <path transform="rotate(18,0,-1)" d="M 0,-1 V 0 H 0.5"/>
        <path d="m 0,-1 0.30901699,0.95105652 -0.47552825,0.15450849"/>
      </g>
      <g transform="rotate(-72)">
        <path transform="rotate(18,0,-1)" d="M 0,-1 V 0 H 0.5"/>
        <path d="m 0,-1 0.30901699,0.95105652 -0.47552825,0.15450849"/>
      </g>
      <g transform="rotate(144)">
        <path transform="rotate(18,0,-1)" d="M 0,-1 V 0 H 0.5"/>
        <path d="m 0,-1 0.30901699,0.95105652 -0.47552825,0.15450849"/>
      </g>
      <g transform="rotate(-144)">
        <path transform="rotate(18,0,-1)" d="M 0,-1 V 0 H 0.5"/>
        <path d="m 0,-1 0.30901699,0.95105652 -0.47552825,0.15450849"/>
      </g>
    </g>
    <g transform="matrix(0.852491855621, 0, 0, 0.852491855621, 83.97159576416, 80.139060974121)" fill="#fff" style="">
      <path d="M 0,-1 V 0 H 0.5" transform="rotate(18,0,-1)"/>
      <path d="m 0,-1 0.30901699,0.95105652 -0.47552825,0.15450849"/>
      <g transform="rotate(72)">
        <path transform="rotate(18,0,-1)" d="M 0,-1 V 0 H 0.5"/>
        <path d="m 0,-1 0.30901699,0.95105652 -0.47552825,0.15450849"/>
      </g>
      <g transform="rotate(-72)">
        <path transform="rotate(18,0,-1)" d="M 0,-1 V 0 H 0.5"/>
        <path d="m 0,-1 0.30901699,0.95105652 -0.47552825,0.15450849"/>
      </g>
      <g transform="rotate(144)">
        <path transform="rotate(18,0,-1)" d="M 0,-1 V 0 H 0.5"/>
        <path d="m 0,-1 0.30901699,0.95105652 -0.47552825,0.15450849"/>
      </g>
      <g transform="rotate(-144)">
        <path transform="rotate(18,0,-1)" d="M 0,-1 V 0 H 0.5"/>
        <path d="m 0,-1 0.30901699,0.95105652 -0.47552825,0.15450849"/>
      </g>
    </g>
    <g transform="matrix(0.681993067265, 0, 0, 0.681993067265, 79.587348937988, 80.886009216309)" fill="#fff" style="">
      <path d="M 0,-1 V 0 H 0.5" transform="rotate(18,0,-1)"/>
      <path d="m 0,-1 0.30901699,0.95105652 -0.47552825,0.15450849"/>
      <g transform="rotate(72)">
        <path transform="rotate(18,0,-1)" d="M 0,-1 V 0 H 0.5"/>
        <path d="m 0,-1 0.30901699,0.95105652 -0.47552825,0.15450849"/>
      </g>
      <g transform="rotate(-72)">
        <path transform="rotate(18,0,-1)" d="M 0,-1 V 0 H 0.5"/>
        <path d="m 0,-1 0.30901699,0.95105652 -0.47552825,0.15450849"/>
      </g>
      <g transform="rotate(144)">
        <path transform="rotate(18,0,-1)" d="M 0,-1 V 0 H 0.5"/>
        <path d="m 0,-1 0.30901699,0.95105652 -0.47552825,0.15450849"/>
      </g>
      <g transform="rotate(-144)">
        <path transform="rotate(18,0,-1)" d="M 0,-1 V 0 H 0.5"/>
        <path d="m 0,-1 0.30901699,0.95105652 -0.47552825,0.15450849"/>
      </g>
    </g>
    <g transform="matrix(0.852491855621, 0, 0, 0.852491855621, 58.640403747559, 68.707557678223)" fill="#fff" style="">
      <path d="M 0,-1 V 0 H 0.5" transform="rotate(18,0,-1)"/>
      <path d="m 0,-1 0.30901699,0.95105652 -0.47552825,0.15450849"/>
      <g transform="rotate(72)">
        <path transform="rotate(18,0,-1)" d="M 0,-1 V 0 H 0.5"/>
        <path d="m 0,-1 0.30901699,0.95105652 -0.47552825,0.15450849"/>
      </g>
      <g transform="rotate(-72)">
        <path transform="rotate(18,0,-1)" d="M 0,-1 V 0 H 0.5"/>
        <path d="m 0,-1 0.30901699,0.95105652 -0.47552825,0.15450849"/>
      </g>
      <g transform="rotate(144)">
        <path transform="rotate(18,0,-1)" d="M 0,-1 V 0 H 0.5"/>
        <path d="m 0,-1 0.30901699,0.95105652 -0.47552825,0.15450849"/>
      </g>
      <g transform="rotate(-144)">
        <path transform="rotate(18,0,-1)" d="M 0,-1 V 0 H 0.5"/>
        <path d="m 0,-1 0.30901699,0.95105652 -0.47552825,0.15450849"/>
      </g>
    </g>
    <g transform="matrix(0.681993067265, 0, 0, 0.681993067265, 74.228828430176, 66.531677246094)" fill="#fff" style="">
      <path d="M 0,-1 V 0 H 0.5" transform="rotate(18,0,-1)"/>
      <path d="m 0,-1 0.30901699,0.95105652 -0.47552825,0.15450849"/>
      <g transform="rotate(72)">
        <path transform="rotate(18,0,-1)" d="M 0,-1 V 0 H 0.5"/>
        <path d="m 0,-1 0.30901699,0.95105652 -0.47552825,0.15450849"/>
      </g>
      <g transform="rotate(-72)">
        <path transform="rotate(18,0,-1)" d="M 0,-1 V 0 H 0.5"/>
        <path d="m 0,-1 0.30901699,0.95105652 -0.47552825,0.15450849"/>
      </g>
      <g transform="rotate(144)">
        <path transform="rotate(18,0,-1)" d="M 0,-1 V 0 H 0.5"/>
        <path d="m 0,-1 0.30901699,0.95105652 -0.47552825,0.15450849"/>
      </g>
      <g transform="rotate(-144)">
        <path transform="rotate(18,0,-1)" d="M 0,-1 V 0 H 0.5"/>
        <path d="m 0,-1 0.30901699,0.95105652 -0.47552825,0.15450849"/>
      </g>
    </g>
    <g transform="matrix(1.022990226746, 0, 0, 1.022990226746, 67.73365020752, 78.450317382813)" fill="#fff" style="">
      <path d="M 0,-1 V 0 H 0.5" transform="rotate(18,0,-1)"/>
      <path d="m 0,-1 0.30901699,0.95105652 -0.47552825,0.15450849"/>
      <g transform="rotate(72)">
        <path transform="rotate(18,0,-1)" d="M 0,-1 V 0 H 0.5"/>
        <path d="m 0,-1 0.30901699,0.95105652 -0.47552825,0.15450849"/>
      </g>
      <g transform="rotate(-72)">
        <path transform="rotate(18,0,-1)" d="M 0,-1 V 0 H 0.5"/>
        <path d="m 0,-1 0.30901699,0.95105652 -0.47552825,0.15450849"/>
      </g>
      <g transform="rotate(144)">
        <path transform="rotate(18,0,-1)" d="M 0,-1 V 0 H 0.5"/>
        <path d="m 0,-1 0.30901699,0.95105652 -0.47552825,0.15450849"/>
      </g>
      <g transform="rotate(-144)">
        <path transform="rotate(18,0,-1)" d="M 0,-1 V 0 H 0.5"/>
        <path d="m 0,-1 0.30901699,0.95105652 -0.47552825,0.15450849"/>
      </g>
    </g>
    <g transform="matrix(0.852491855621, 0, 0, 0.852491855621, 70.494102478027, 73.708839416504)" fill="#fff" style="">
      <path d="M 0,-1 V 0 H 0.5" transform="rotate(18,0,-1)"/>
      <path d="m 0,-1 0.30901699,0.95105652 -0.47552825,0.15450849"/>
      <g transform="rotate(72)">
        <path transform="rotate(18,0,-1)" d="M 0,-1 V 0 H 0.5"/>
        <path d="m 0,-1 0.30901699,0.95105652 -0.47552825,0.15450849"/>
      </g>
      <g transform="rotate(-72)">
        <path transform="rotate(18,0,-1)" d="M 0,-1 V 0 H 0.5"/>
        <path d="m 0,-1 0.30901699,0.95105652 -0.47552825,0.15450849"/>
      </g>
      <g transform="rotate(144)">
        <path transform="rotate(18,0,-1)" d="M 0,-1 V 0 H 0.5"/>
        <path d="m 0,-1 0.30901699,0.95105652 -0.47552825,0.15450849"/>
      </g>
      <g transform="rotate(-144)">
        <path transform="rotate(18,0,-1)" d="M 0,-1 V 0 H 0.5"/>
        <path d="m 0,-1 0.30901699,0.95105652 -0.47552825,0.15450849"/>
      </g>
    </g>
    <g transform="matrix(0.852491855621, 0, 0, 0.852491855621, 67.73365020752, 71.5654296875)" fill="#fff" style="">
      <path d="M 0,-1 V 0 H 0.5" transform="rotate(18,0,-1)"/>
      <path d="m 0,-1 0.30901699,0.95105652 -0.47552825,0.15450849"/>
      <g transform="rotate(72)">
        <path transform="rotate(18,0,-1)" d="M 0,-1 V 0 H 0.5"/>
        <path d="m 0,-1 0.30901699,0.95105652 -0.47552825,0.15450849"/>
      </g>
      <g transform="rotate(-72)">
        <path transform="rotate(18,0,-1)" d="M 0,-1 V 0 H 0.5"/>
        <path d="m 0,-1 0.30901699,0.95105652 -0.47552825,0.15450849"/>
      </g>
      <g transform="rotate(144)">
        <path transform="rotate(18,0,-1)" d="M 0,-1 V 0 H 0.5"/>
        <path d="m 0,-1 0.30901699,0.95105652 -0.47552825,0.15450849"/>
      </g>
      <g transform="rotate(-144)">
        <path transform="rotate(18,0,-1)" d="M 0,-1 V 0 H 0.5"/>
        <path d="m 0,-1 0.30901699,0.95105652 -0.47552825,0.15450849"/>
      </g>
    </g>
    <g transform="matrix(0.681993067265, 0, 0, 0.681993067265, 65.330436706543, 73.708839416504)" fill="#fff" style="">
      <path d="M 0,-1 V 0 H 0.5" transform="rotate(18,0,-1)"/>
      <path d="m 0,-1 0.30901699,0.95105652 -0.47552825,0.15450849"/>
      <g transform="rotate(72)">
        <path transform="rotate(18,0,-1)" d="M 0,-1 V 0 H 0.5"/>
        <path d="m 0,-1 0.30901699,0.95105652 -0.47552825,0.15450849"/>
      </g>
      <g transform="rotate(-72)">
        <path transform="rotate(18,0,-1)" d="M 0,-1 V 0 H 0.5"/>
        <path d="m 0,-1 0.30901699,0.95105652 -0.47552825,0.15450849"/>
      </g>
      <g transform="rotate(144)">
        <path transform="rotate(18,0,-1)" d="M 0,-1 V 0 H 0.5"/>
        <path d="m 0,-1 0.30901699,0.95105652 -0.47552825,0.15450849"/>
      </g>
      <g transform="rotate(-144)">
        <path transform="rotate(18,0,-1)" d="M 0,-1 V 0 H 0.5"/>
        <path d="m 0,-1 0.30901699,0.95105652 -0.47552825,0.15450849"/>
      </g>
    </g>
    <g transform="matrix(0.48713812232, 0, 0, 0.48713812232, 66.532051086426, 75.365104675293)" fill="#fff" style="">
      <path d="M 0,-1 V 0 H 0.5" transform="rotate(18,0,-1)"/>
      <path d="m 0,-1 0.30901699,0.95105652 -0.47552825,0.15450849"/>
      <g transform="rotate(72)">
        <path transform="rotate(18,0,-1)" d="M 0,-1 V 0 H 0.5"/>
        <path d="m 0,-1 0.30901699,0.95105652 -0.47552825,0.15450849"/>
      </g>
      <g transform="rotate(-72)">
        <path transform="rotate(18,0,-1)" d="M 0,-1 V 0 H 0.5"/>
        <path d="m 0,-1 0.30901699,0.95105652 -0.47552825,0.15450849"/>
      </g>
      <g transform="rotate(144)">
        <path transform="rotate(18,0,-1)" d="M 0,-1 V 0 H 0.5"/>
        <path d="m 0,-1 0.30901699,0.95105652 -0.47552825,0.15450849"/>
      </g>
      <g transform="rotate(-144)">
        <path transform="rotate(18,0,-1)" d="M 0,-1 V 0 H 0.5"/>
        <path d="m 0,-1 0.30901699,0.95105652 -0.47552825,0.15450849"/>
      </g>
    </g>
    <g transform="matrix(0.852491855621, 0, 0, 0.852491855621, 74.878341674805, 83.80883026123)" fill="#fff" style="">
      <path d="M 0,-1 V 0 H 0.5" transform="rotate(18,0,-1)"/>
      <path d="m 0,-1 0.30901699,0.95105652 -0.47552825,0.15450849"/>
      <g transform="rotate(72)">
        <path transform="rotate(18,0,-1)" d="M 0,-1 V 0 H 0.5"/>
        <path d="m 0,-1 0.30901699,0.95105652 -0.47552825,0.15450849"/>
      </g>
      <g transform="rotate(-72)">
        <path transform="rotate(18,0,-1)" d="M 0,-1 V 0 H 0.5"/>
        <path d="m 0,-1 0.30901699,0.95105652 -0.47552825,0.15450849"/>
      </g>
      <g transform="rotate(144)">
        <path transform="rotate(18,0,-1)" d="M 0,-1 V 0 H 0.5"/>
        <path d="m 0,-1 0.30901699,0.95105652 -0.47552825,0.15450849"/>
      </g>
      <g transform="rotate(-144)">
        <path transform="rotate(18,0,-1)" d="M 0,-1 V 0 H 0.5"/>
        <path d="m 0,-1 0.30901699,0.95105652 -0.47552825,0.15450849"/>
      </g>
    </g>
    <g transform="matrix(0.681993067265, 0, 0, 0.681993067265, 76.92431640625, 81.697906494141)" fill="#fff" style="">
      <path d="M 0,-1 V 0 H 0.5" transform="rotate(18,0,-1)"/>
      <path d="m 0,-1 0.30901699,0.95105652 -0.47552825,0.15450849"/>
      <g transform="rotate(72)">
        <path transform="rotate(18,0,-1)" d="M 0,-1 V 0 H 0.5"/>
        <path d="m 0,-1 0.30901699,0.95105652 -0.47552825,0.15450849"/>
      </g>
      <g transform="rotate(-72)">
        <path transform="rotate(18,0,-1)" d="M 0,-1 V 0 H 0.5"/>
        <path d="m 0,-1 0.30901699,0.95105652 -0.47552825,0.15450849"/>
      </g>
      <g transform="rotate(144)">
        <path transform="rotate(18,0,-1)" d="M 0,-1 V 0 H 0.5"/>
        <path d="m 0,-1 0.30901699,0.95105652 -0.47552825,0.15450849"/>
      </g>
      <g transform="rotate(-144)">
        <path transform="rotate(18,0,-1)" d="M 0,-1 V 0 H 0.5"/>
        <path d="m 0,-1 0.30901699,0.95105652 -0.47552825,0.15450849"/>
      </g>
    </g>
    <g transform="matrix(0.681993067265, 0, 0, 0.681993067265, 72.994743347168, 81.113342285156)" fill="#fff" style="">
      <path d="M 0,-1 V 0 H 0.5" transform="rotate(18,0,-1)"/>
      <path d="m 0,-1 0.30901699,0.95105652 -0.47552825,0.15450849"/>
      <g transform="rotate(72)">
        <path transform="rotate(18,0,-1)" d="M 0,-1 V 0 H 0.5"/>
        <path d="m 0,-1 0.30901699,0.95105652 -0.47552825,0.15450849"/>
      </g>
      <g transform="rotate(-72)">
        <path transform="rotate(18,0,-1)" d="M 0,-1 V 0 H 0.5"/>
        <path d="m 0,-1 0.30901699,0.95105652 -0.47552825,0.15450849"/>
      </g>
      <g transform="rotate(144)">
        <path transform="rotate(18,0,-1)" d="M 0,-1 V 0 H 0.5"/>
        <path d="m 0,-1 0.30901699,0.95105652 -0.47552825,0.15450849"/>
      </g>
      <g transform="rotate(-144)">
        <path transform="rotate(18,0,-1)" d="M 0,-1 V 0 H 0.5"/>
        <path d="m 0,-1 0.30901699,0.95105652 -0.47552825,0.15450849"/>
      </g>
    </g>
    <g transform="matrix(1.022990226746, 0, 0, 1.022990226746, 58.153266906738, 80.398864746094)" fill="#fff" style="">
      <path d="M 0,-1 V 0 H 0.5" transform="rotate(18,0,-1)"/>
      <path d="m 0,-1 0.30901699,0.95105652 -0.47552825,0.15450849"/>
      <g transform="rotate(72)">
        <path transform="rotate(18,0,-1)" d="M 0,-1 V 0 H 0.5"/>
        <path d="m 0,-1 0.30901699,0.95105652 -0.47552825,0.15450849"/>
      </g>
      <g transform="rotate(-72)">
        <path transform="rotate(18,0,-1)" d="M 0,-1 V 0 H 0.5"/>
        <path d="m 0,-1 0.30901699,0.95105652 -0.47552825,0.15450849"/>
      </g>
      <g transform="rotate(144)">
        <path transform="rotate(18,0,-1)" d="M 0,-1 V 0 H 0.5"/>
        <path d="m 0,-1 0.30901699,0.95105652 -0.47552825,0.15450849"/>
      </g>
      <g transform="rotate(-144)">
        <path transform="rotate(18,0,-1)" d="M 0,-1 V 0 H 0.5"/>
        <path d="m 0,-1 0.30901699,0.95105652 -0.47552825,0.15450849"/>
      </g>
    </g>
    <g transform="matrix(0.340996265411, 0, 0, 0.340996265411, 67.73365020752, 86.406898498535)" fill="#fff" style="">
      <path d="M 0,-1 V 0 H 0.5" transform="rotate(18,0,-1)"/>
      <path d="m 0,-1 0.30901699,0.95105652 -0.47552825,0.15450849"/>
      <g transform="rotate(72)">
        <path transform="rotate(18,0,-1)" d="M 0,-1 V 0 H 0.5"/>
        <path d="m 0,-1 0.30901699,0.95105652 -0.47552825,0.15450849"/>
      </g>
      <g transform="rotate(-72)">
        <path transform="rotate(18,0,-1)" d="M 0,-1 V 0 H 0.5"/>
        <path d="m 0,-1 0.30901699,0.95105652 -0.47552825,0.15450849"/>
      </g>
      <g transform="rotate(144)">
        <path transform="rotate(18,0,-1)" d="M 0,-1 V 0 H 0.5"/>
        <path d="m 0,-1 0.30901699,0.95105652 -0.47552825,0.15450849"/>
      </g>
      <g transform="rotate(-144)">
        <path transform="rotate(18,0,-1)" d="M 0,-1 V 0 H 0.5"/>
        <path d="m 0,-1 0.30901699,0.95105652 -0.47552825,0.15450849"/>
      </g>
    </g>
  </g>
</svg>