<svg width="416" height="416" viewBox="0 0 416 416" fill="none" xmlns="http://www.w3.org/2000/svg">
<path fill-rule="evenodd" clip-rule="evenodd" d="M208 96C146.25 96 96 146.25 96 208C96 269.75 146.25 320 208 320C269.75 320 320 269.75 320 208C320 146.25 269.75 96 208 96ZM208 288C163.812 288 128 252.188 128 208C128 163.812 163.812 128 208 128C252.188 128 288 163.812 288 208C288 252.188 252.188 288 208 288ZM208 64C216.833 64 224 56.833 224 48V16C224 7.167 216.833 0 208 0C199.167 0 192 7.167 192 16V48C192 56.833 199.167 64 208 64ZM208 352C199.167 352 192 359.167 192 368V400C192 408.833 199.167 416 208 416C216.833 416 224 408.833 224 400V368C224 359.167 216.833 352 208 352ZM332.438 106.167L355.063 83.542C361.313 77.292 361.313 67.167 355.063 60.917C348.813 54.667 338.688 54.667 332.438 60.917L309.813 83.542C303.563 89.792 303.563 99.917 309.813 106.167C316.062 112.417 326.188 112.417 332.438 106.167ZM83.562 309.834L60.937 332.459C54.687 338.708 54.687 348.833 60.937 355.083C67.187 361.333 77.312 361.333 83.562 355.083L106.187 332.459C112.437 326.188 112.437 316.083 106.187 309.834C99.938 303.583 89.812 303.562 83.562 309.834ZM64 208C64 199.167 56.833 192 48 192H16C7.167 192 0 199.167 0 208C0 216.833 7.167 224 16 224H48C56.833 224 64 216.833 64 208ZM400 192H368C359.167 192 352 199.167 352 208C352 216.833 359.167 224 368 224H400C408.833 224 416 216.833 416 208C416 199.167 408.833 192 400 192ZM83.541 106.167C89.792 112.417 99.917 112.417 106.166 106.167C112.417 99.917 112.417 89.792 106.166 83.542L83.541 60.917C77.291 54.667 67.167 54.667 60.916 60.917C54.666 67.167 54.666 77.292 60.916 83.542L83.541 106.167ZM332.459 309.812C326.188 303.562 316.083 303.562 309.834 309.812C303.583 316.062 303.563 326.187 309.834 332.437L332.459 355.062C338.708 361.312 348.833 361.312 355.083 355.062C361.333 348.812 361.333 338.688 355.083 332.437L332.459 309.812Z" fill="#1D1D1B"/>
</svg>
