<svg width="512" height="512" viewBox="0 0 512 512" fill="none" xmlns="http://www.w3.org/2000/svg">
<path fill-rule="evenodd" clip-rule="evenodd" d="M400 160C394.688 160 389.438 160.375 384.208 161.125C354.334 120.417 307.188 96 256 96C204.812 96 157.688 120.417 127.792 161.125C122.562 160.375 117.312 160 112 160C50.25 160 0 210.25 0 272C0 333.75 50.25 384 112 384C125.688 384 139.084 381.5 151.709 376.667C180.666 401.917 217.5 416 256 416C294.542 416 331.333 401.917 360.291 376.667C372.916 381.5 386.312 384 400 384C461.75 384 512 333.75 512 272C512 210.25 461.75 160 400 160ZM400 352C382.875 352 367.084 346.5 354.062 337.333C330.584 365.624 295.624 384 256 384C216.375 384 181.416 365.624 157.938 337.333C144.938 346.5 129.125 352 112 352C67.812 352 32 316.188 32 272C32 227.812 67.812 192 112 192C122.812 192 133.062 194.208 142.438 198.083C163.667 156.667 206.291 128 256 128C305.709 128 348.334 156.667 369.541 198.083C378.938 194.208 389.209 192 400 192C444.188 192 480 227.812 480 272C480 316.188 444.188 352 400 352Z" fill="#1D1D1B"/>
</svg>
