<svg width="512" height="512" viewBox="0 0 512 512" fill="none" xmlns="http://www.w3.org/2000/svg">
<path d="M208 64C216.833 64 224 56.833 224 48V16C224 7.167 216.833 0 208 0C199.167 0 192 7.167 192 16V48C192 56.833 199.167 64 208 64ZM332.438 106.167L355.063 83.542C361.312 77.292 361.312 67.167 355.063 60.917C348.813 54.667 338.688 54.667 332.438 60.917L309.813 83.542C303.563 89.792 303.563 99.917 309.813 106.167C316.062 112.417 326.188 112.417 332.438 106.167ZM16 224H48C56.833 224 64 216.833 64 208C64 199.167 56.833 192 48 192H16C7.167 192 0 199.167 0 208C0 216.833 7.167 224 16 224ZM352 208C352 216.833 359.167 224 368 224H400C408.833 224 416 216.833 416 208C416 199.167 408.833 192 400 192H368C359.167 192 352 199.167 352 208ZM83.541 106.167C89.792 112.417 99.917 112.417 106.166 106.167C112.417 99.917 112.417 89.792 106.166 83.542L83.541 60.917C77.291 54.667 67.167 54.667 60.916 60.917C54.666 67.167 54.666 77.292 60.916 83.542L83.541 106.167ZM400 256C394.688 256 389.438 256.375 384.208 257.125C367.437 234.25 345.084 216.792 319.75 205.625C318.459 145 268.938 96 208 96C146.25 96 96 146.25 96 208C96 225.438 100.334 241.75 107.5 256.438C47.875 258.875 0 307.812 0 368C0 429.75 50.25 480 112 480C125.688 480 139.084 477.5 151.709 472.667C180.666 497.917 217.5 512 256 512C294.542 512 331.333 497.917 360.291 472.667C372.916 477.5 386.312 480 400 480C461.75 480 512 429.75 512 368C512 306.25 461.75 256 400 256ZM208 128C247.812 128 280.562 157.167 286.708 195.25C276.687 193.25 266.459 192 256 192C210.062 192 167.5 211.812 137.625 245.25C131.688 234.083 128 221.542 128 208C128 163.812 163.812 128 208 128ZM400 448C382.875 448 367.084 442.5 354.062 433.333C330.584 461.625 295.624 480 256 480C216.375 480 181.416 461.625 157.938 433.333C144.938 442.5 129.125 448 112 448C67.812 448 32 412.188 32 368C32 323.812 67.812 288 112 288C119.75 288 127.062 289.458 134.125 291.541C136.937 292.333 139.792 292.958 142.437 294.062C146.812 285.5 152.312 277.666 158.416 270.312C181.792 242.188 216.562 224 256 224C266.125 224 275.834 225.458 285.25 227.709C295.812 230.208 305.792 234 315.084 239C338.375 251.375 357.5 270.542 369.541 294.063C378.938 290.188 389.209 288 400 288C444.188 288 480 323.812 480 368C480 412.188 444.188 448 400 448Z" fill="#1D1D1B"/>
</svg>
