<svg width="512" height="512" viewBox="0 0 512 512" fill="none" xmlns="http://www.w3.org/2000/svg">
<path d="M382.872 292.25L350.247 273.416C351.289 267.75 351.997 261.958 351.997 256C351.997 250.021 351.289 244.208 350.205 238.542L382.83 219.688C398.163 210.813 403.372 191.25 394.559 176C385.705 160.688 366.184 155.438 350.871 164.25L317.933 183.271C309.121 175.771 299.079 169.854 287.995 165.917V128C287.995 110.333 273.683 96 255.995 96C238.329 96 223.995 110.333 223.995 128V165.896C212.912 169.834 202.87 175.751 194.058 183.25L161.182 164.271C145.87 155.438 126.286 160.667 117.433 175.979C108.62 191.271 113.871 210.833 129.182 219.667L161.745 238.48C160.683 244.168 159.994 250.001 159.994 256.001C159.994 261.959 160.682 267.772 161.745 273.439L129.161 292.251C113.827 301.085 108.577 320.689 117.432 336.001C126.243 351.251 145.827 356.501 161.161 347.689L193.994 328.71C202.807 336.21 212.869 342.168 223.994 346.127V384C223.994 401.688 238.328 416 255.994 416C273.682 416 287.994 401.688 287.994 384V346.083C299.119 342.125 309.182 336.208 317.952 328.688L350.869 347.687C366.181 356.499 385.745 351.249 394.557 335.999C403.414 320.688 398.185 301.125 382.872 292.25ZM223.997 256C223.997 238.333 238.309 224 255.997 224C273.664 224 287.997 238.333 287.997 256C287.997 273.666 273.664 288 255.997 288C238.31 288 223.997 273.666 223.997 256Z" fill="#1D1D1B"/>
</svg>
