<svg width="512" height="512" viewBox="0 0 512 512" fill="none" xmlns="http://www.w3.org/2000/svg">
<g clip-path="url(#clip0_108_960)">
<path d="M512 0H0V512H512V0Z" stroke="#A9CCDB" stroke-miterlimit="10"/>
<path d="M0 480H512" stroke="#A9CCDB" stroke-miterlimit="10"/>
<path d="M0 448H512" stroke="#A9CCDB" stroke-miterlimit="10"/>
<path d="M0 416H512" stroke="#A9CCDB" stroke-miterlimit="10"/>
<path d="M0 384H512" stroke="#A9CCDB" stroke-miterlimit="10"/>
<path d="M0 352H512" stroke="#A9CCDB" stroke-miterlimit="10"/>
<path d="M0 320H512" stroke="#A9CCDB" stroke-miterlimit="10"/>
<path d="M0 288H512" stroke="#A9CCDB" stroke-miterlimit="10"/>
<path d="M0 256H512" stroke="#A9CCDB" stroke-miterlimit="10"/>
<path d="M0 224H512" stroke="#A9CCDB" stroke-miterlimit="10"/>
<path d="M0 192H512" stroke="#A9CCDB" stroke-miterlimit="10"/>
<path d="M0 160H512" stroke="#A9CCDB" stroke-miterlimit="10"/>
<path d="M0 128H512" stroke="#A9CCDB" stroke-miterlimit="10"/>
<path d="M0 96H512" stroke="#A9CCDB" stroke-miterlimit="10"/>
<path d="M0 64H512" stroke="#A9CCDB" stroke-miterlimit="10"/>
<path d="M0 32H512" stroke="#A9CCDB" stroke-miterlimit="10"/>
<path d="M480 0V512" stroke="#A9CCDB" stroke-miterlimit="10"/>
<path d="M448 0V512" stroke="#A9CCDB" stroke-miterlimit="10"/>
<path d="M416 0V512" stroke="#A9CCDB" stroke-miterlimit="10"/>
<path d="M384 0V512" stroke="#A9CCDB" stroke-miterlimit="10"/>
<path d="M352 0V512" stroke="#A9CCDB" stroke-miterlimit="10"/>
<path d="M320 0V512" stroke="#A9CCDB" stroke-miterlimit="10"/>
<path d="M288 0V512" stroke="#A9CCDB" stroke-miterlimit="10"/>
<path d="M256 0V512" stroke="#A9CCDB" stroke-miterlimit="10"/>
<path d="M224 0V512" stroke="#A9CCDB" stroke-miterlimit="10"/>
<path d="M192 0V512" stroke="#A9CCDB" stroke-miterlimit="10"/>
<path d="M160 0V512" stroke="#A9CCDB" stroke-miterlimit="10"/>
<path d="M128 0V512" stroke="#A9CCDB" stroke-miterlimit="10"/>
<path d="M96 0V512" stroke="#A9CCDB" stroke-miterlimit="10"/>
<path d="M64 0V512" stroke="#A9CCDB" stroke-miterlimit="10"/>
<path d="M32 0V512" stroke="#A9CCDB" stroke-miterlimit="10"/>
<path d="M400 64C394.688 64 389.438 64.375 384.208 65.125C354.334 24.417 307.188 0 256 0C204.812 0 157.688 24.417 127.792 65.125C122.562 64.375 117.312 64 112 64C50.25 64 0 114.25 0 176C0 237.75 50.25 288 112 288C125.688 288 139.084 285.5 151.709 280.667C164 291.375 177.959 299.625 192.625 306.083L217.541 281.209C194.083 273.583 173.375 259.938 157.937 241.333C144.938 250.5 129.125 256 112 256C67.812 256 32 220.188 32 176C32 131.812 67.812 96 112 96C122.812 96 133.062 98.208 142.438 102.083C163.667 60.667 206.291 32 256 32C305.709 32 348.334 60.667 369.541 102.083C378.938 98.208 389.209 96 400 96C444.188 96 480 131.812 480 176C480 220.188 444.188 256 400 256C382.875 256 367.084 250.5 354.062 241.333C343.687 253.854 330.75 264 316.437 271.917L303 312.25C323.875 305.688 343.5 295.312 360.291 280.667C372.916 285.5 386.312 288 400 288C461.75 288 512 237.75 512 176C512 114.25 461.75 64 400 64ZM192 352L224 384L192 480L288 384L256 352L288 256L192 352Z" fill="#1D1D1B"/>
</g>
<defs>
<clipPath id="clip0_108_960">
<rect width="512" height="512" fill="white"/>
</clipPath>
</defs>
</svg>
