<svg width="22" height="18" viewBox="0 0 22 18" fill="none" xmlns="http://www.w3.org/2000/svg">
<path d="M7.69003 3.70004C7.69003 4.18004 7.59002 4.64004 7.40002 5.07004C7.21002 5.50004 6.95002 5.88004 6.61002 6.20004C6.27002 6.52004 5.88002 6.77002 5.43002 6.96002C4.98002 7.15002 4.50002 7.24002 3.99002 7.24002C3.48002 7.24002 3.00002 7.15002 2.55002 6.96002C2.10002 6.78002 1.71003 6.52004 1.37003 6.20004C1.03003 5.88004 0.770017 5.50004 0.580017 5.07004C0.390017 4.64004 0.290039 4.18004 0.290039 3.70004C0.290039 3.22004 0.390017 2.76002 0.580017 2.33002C0.770017 1.90002 1.04003 1.52004 1.37003 1.20004C1.71003 0.880043 2.10002 0.630033 2.55002 0.440033C3.00002 0.260033 3.48002 0.160034 3.99002 0.160034C4.50002 0.160034 4.98002 0.250033 5.43002 0.440033C5.88002 0.630033 6.27002 0.880043 6.61002 1.20004C6.95002 1.52004 7.21002 1.90002 7.40002 2.33002C7.59002 2.76002 7.69003 3.22004 7.69003 3.70004ZM5.65002 3.70004C5.65002 3.25004 5.49004 2.87003 5.17004 2.56003C4.85004 2.25003 4.46002 2.09003 3.99002 2.09003C3.52002 2.09003 3.13003 2.24003 2.81003 2.56003C2.49003 2.87003 2.33002 3.25004 2.33002 3.70004C2.33002 4.15004 2.49003 4.51002 2.81003 4.83002C3.13003 5.15002 3.52002 5.31003 3.99002 5.31003C4.46002 5.31003 4.85004 5.15002 5.17004 4.83002C5.49004 4.51002 5.65002 4.13004 5.65002 3.70004Z" fill="#161616"/>
<path d="M20.12 4.47003C19.61 4.04003 19.06 3.74004 18.46 3.57004C17.87 3.40004 17.29 3.32004 16.73 3.32004C16.36 3.32004 15.99 3.37004 15.63 3.48004C15.26 3.58004 14.93 3.76003 14.65 4.00003C14.36 4.24003 14.12 4.55003 13.94 4.94003C13.76 5.32003 13.66 5.79002 13.66 6.33002V11.15C13.66 11.69 13.75 12.15 13.94 12.53C14.12 12.91 14.36 13.21 14.66 13.45C14.95 13.69 15.28 13.87 15.64 13.98C16 14.09 16.36 14.15 16.73 14.15C17.29 14.15 17.85 14.07 18.42 13.91C18.99 13.75 19.56 13.45 20.13 13L21.69 15.54C21.08 16.05 20.34 16.45 19.46 16.74C18.58 17.03 17.65 17.17 16.68 17.17C15.89 17.17 15.13 17.06 14.37 16.83C13.62 16.61 12.95 16.28 12.35 15.83C11.76 15.39 11.28 14.84 10.91 14.17C10.54 13.51 10.36 12.73 10.36 11.83V5.64005C10.36 4.76005 10.54 3.99004 10.9 3.32004C11.26 2.66004 11.73 2.10002 12.31 1.65002C12.89 1.20002 13.56 0.870045 14.31 0.640045C15.06 0.420045 15.83 0.300018 16.61 0.300018C17.57 0.300018 18.49 0.430023 19.38 0.680023C20.27 0.940023 21.03 1.35002 21.67 1.90002L20.09 4.45004L20.12 4.47003Z" fill="#161616"/>
</svg>
