<svg width="39" height="39" viewBox="0 0 39 39" fill="none" xmlns="http://www.w3.org/2000/svg">
<path fill-rule="evenodd" clip-rule="evenodd" d="M19.5 9C13.71 9 9 13.71 9 19.5C9 25.29 13.71 30 19.5 30C25.29 30 30 25.29 30 19.5C30 13.71 25.29 9 19.5 9ZM19.5 27C15.36 27 12 23.64 12 19.5C12 15.36 15.36 12 19.5 12C23.64 12 27 15.36 27 19.5C27 23.64 23.64 27 19.5 27Z" fill="#fff"/>
<path fill-rule="evenodd" clip-rule="evenodd" d="M19.5 0C18.67 0 18 0.67 18 1.5V4.5C18 5.33 18.67 6 19.5 6C20.33 6 21 5.33 21 4.5V1.5C21 0.67 20.33 0 19.5 0Z" fill="#fff"/>
<path fill-rule="evenodd" clip-rule="evenodd" d="M19.5 33C18.67 33 18 33.67 18 34.5V37.5C18 38.33 18.67 39 19.5 39C20.33 39 21 38.33 21 37.5V34.5C21 33.67 20.33 33 19.5 33Z" fill="#fff"/>
<path fill-rule="evenodd" clip-rule="evenodd" d="M33.2899 5.70999C32.6999 5.11999 31.7499 5.11999 31.1699 5.70999L29.0499 7.82999C28.4599 8.41999 28.4599 9.36999 29.0499 9.94999C29.6399 10.53 30.5899 10.54 31.1699 9.94999L33.2899 7.82999C33.8799 7.23999 33.8799 6.28999 33.2899 5.70999Z" fill="#fff"/>
<path fill-rule="evenodd" clip-rule="evenodd" d="M9.95996 29.05C9.36996 28.46 8.41996 28.46 7.83996 29.05L5.71997 31.17C5.12997 31.76 5.12997 32.71 5.71997 33.29C6.30997 33.87 7.25996 33.88 7.83996 33.29L9.95996 31.17C10.55 30.58 10.55 29.63 9.95996 29.05Z" fill="#fff"/>
<path fill-rule="evenodd" clip-rule="evenodd" d="M0 19.5C0 20.33 0.67 21 1.5 21H4.5C5.33 21 6 20.33 6 19.5C6 18.67 5.33 18 4.5 18H1.5C0.67 18 0 18.67 0 19.5Z" fill="#fff"/>
<path fill-rule="evenodd" clip-rule="evenodd" d="M33 19.5C33 20.33 33.67 21 34.5 21H37.5C38.33 21 39 20.33 39 19.5C39 18.67 38.33 18 37.5 18H34.5C33.67 18 33 18.67 33 19.5Z" fill="#fff"/>
<path fill-rule="evenodd" clip-rule="evenodd" d="M5.70996 5.70999C5.11996 6.29999 5.11996 7.24999 5.70996 7.82999L7.82996 9.94999C8.41996 10.54 9.36995 10.54 9.94995 9.94999C10.54 9.35999 10.54 8.40999 9.94995 7.82999L7.82996 5.70999C7.23996 5.11999 6.28996 5.11999 5.70996 5.70999Z" fill="#fff"/>
<path fill-rule="evenodd" clip-rule="evenodd" d="M29.0499 29.04C28.4599 29.63 28.4599 30.58 29.0499 31.16L31.1699 33.28C31.7599 33.87 32.7099 33.87 33.2899 33.28C33.8799 32.69 33.8799 31.74 33.2899 31.16L31.1699 29.04C30.5799 28.45 29.6299 28.45 29.0499 29.04Z" fill="#fff"/>
</svg>
