<svg width="22" height="17" viewBox="0 0 22 17" fill="none" xmlns="http://www.w3.org/2000/svg">
<path d="M7.69003 3.70004C7.69003 4.18004 7.59002 4.64004 7.40002 5.07004C7.21002 5.50004 6.95002 5.88004 6.61002 6.20004C6.27002 6.52004 5.88002 6.77002 5.43002 6.96002C4.98002 7.15002 4.50002 7.24002 3.99002 7.24002C3.48002 7.24002 3.00002 7.15002 2.55002 6.96002C2.10002 6.78002 1.71003 6.52004 1.37003 6.20004C1.03003 5.88004 0.770017 5.50004 0.580017 5.07004C0.390017 4.64004 0.290039 4.18004 0.290039 3.70004C0.290039 3.22004 0.390017 2.76002 0.580017 2.33002C0.770017 1.90002 1.04003 1.52004 1.37003 1.20004C1.71003 0.880043 2.10002 0.630033 2.55002 0.440033C3.00002 0.260033 3.48002 0.160034 3.99002 0.160034C4.50002 0.160034 4.98002 0.250033 5.43002 0.440033C5.88002 0.630033 6.27002 0.880043 6.61002 1.20004C6.95002 1.52004 7.21002 1.90002 7.40002 2.33002C7.59002 2.76002 7.69003 3.22004 7.69003 3.70004ZM5.65002 3.70004C5.65002 3.25004 5.49004 2.87003 5.17004 2.56003C4.85004 2.25003 4.46002 2.09003 3.99002 2.09003C3.52002 2.09003 3.13003 2.24003 2.81003 2.56003C2.49003 2.87003 2.33002 3.25004 2.33002 3.70004C2.33002 4.15004 2.49003 4.51002 2.81003 4.83002C3.13003 5.15002 3.52002 5.31003 3.99002 5.31003C4.46002 5.31003 4.85004 5.15002 5.17004 4.83002C5.49004 4.51002 5.65002 4.13004 5.65002 3.70004Z" fill="#161616"/>
<path d="M13.71 7.30002H20.65V10.25H13.71V16.99H10.42V0.450043H21.82V3.40002H13.71V7.29004V7.30002Z" fill="#161616"/>
</svg>
