<svg width="48" height="39" viewBox="0 0 48 39" fill="none" xmlns="http://www.w3.org/2000/svg">
<path d="M48 12.64C48 8.03 44.25 4.28 39.64 4.28C39.42 4.28 39.19 4.28 38.97 4.31C36.8 1.6 33.53 0 30 0C26.47 0 23.2 1.61 21.03 4.31C20.81 4.29 20.58 4.28 20.36 4.28C15.75 4.28 12 8.03 12 12.64C12 13.12 12.06 13.59 12.14 14.05C12.09 14.12 12.03 14.18 11.98 14.25C11.49 14.18 11 14.14 10.5 14.14C4.71 14.14 0 18.85 0 24.64C0 30.43 4.71 35.14 10.5 35.14C11.78 35.14 13.04 34.91 14.22 34.45C16.93 36.82 20.39 38.14 24 38.14C27.61 38.14 31.06 36.82 33.78 34.45C34.96 34.9 36.22 35.14 37.5 35.14C43.29 35.14 48 30.43 48 24.64C48 22.23 47.15 20.04 45.78 18.26C47.15 16.77 48 14.81 48 12.64V12.64ZM37.5 32.14C35.89 32.14 34.41 31.62 33.19 30.76C30.99 33.41 27.71 35.14 24 35.14C20.29 35.14 17.01 33.42 14.81 30.76C13.59 31.62 12.11 32.14 10.5 32.14C6.36 32.14 3 28.78 3 24.64C3 20.5 6.36 17.14 10.5 17.14C11.51 17.14 12.47 17.35 13.35 17.71C13.4 17.61 13.47 17.52 13.52 17.43C14.05 16.47 14.7 15.58 15.46 14.8C17.62 12.56 20.63 11.14 24 11.14C28.66 11.14 32.66 13.83 34.64 17.71C35.17 17.49 35.73 17.35 36.32 17.26L37.5 17.14C38.66 17.14 39.74 17.43 40.72 17.89C41.78 18.4 42.69 19.14 43.41 20.06C44.39 21.33 45.01 22.91 45.01 24.64C45.01 28.78 41.65 32.14 37.51 32.14H37.5ZM43.65 16.17C41.92 14.91 39.81 14.14 37.5 14.14C37 14.14 36.51 14.18 36.02 14.25C33.22 10.43 28.8 8.14 24 8.14C20.8 8.14 17.78 9.18 15.29 10.98C15.99 8.84 17.98 7.28 20.36 7.28C21.09 7.28 21.77 7.43 22.4 7.69C23.82 4.92 26.68 3 30.01 3C33.34 3 36.19 4.92 37.61 7.69C38.24 7.43 38.93 7.28 39.65 7.28C42.61 7.28 45.01 9.68 45.01 12.64C45.01 14 44.49 15.22 43.66 16.17H43.65Z" fill="#fff"/>
</svg>
