<?xml version="1.0" encoding="utf-8"?>
<!-- Generator: Adobe Illustrator 22.1.0, SVG Export Plug-In . SVG Version: 6.00 Build 0)  -->
<svg version="1.1" id="Layer_1" xmlns="http://www.w3.org/2000/svg" xmlns:xlink="http://www.w3.org/1999/xlink" x="0px" y="0px"
	 viewBox="0 0 512 512" style="enable-background:new 0 0 512 512;" xml:space="preserve">
<style type="text/css">
	.st0{fill:#FFFFFF;}
</style>
<g>
	<g>
		<path class="st0" d="M326,443.7l-18-10.4c0.5-3.1,1-6.3,1-9.6c0-3.3-0.4-6.5-1-9.6l18-10.4c8.4-4.9,11.3-15.7,6.5-24.1
			c-4.9-8.5-15.7-11.4-24.1-6.5l-18.2,10.5c-4.9-4.1-10.4-7.4-16.5-9.6v-20.9c0-9.8-7.9-17.7-17.7-17.7s-17.7,7.9-17.7,17.7v20.9
			c-6.1,2.2-11.6,5.5-16.5,9.6l-18.1-10.5c-8.5-4.9-19.3-2-24.2,6.5c-4.9,8.4-1.9,19.2,6.5,24.1l18,10.4c-0.6,3.1-1,6.3-1,9.6
			c0,3.3,0.4,6.5,1,9.6l-18,10.4c-8.5,4.9-11.4,15.8-6.5,24.2s15.7,11.3,24.1,6.4l18.2-10.4c4.9,4.1,10.4,7.4,16.5,9.6v20.9
			c0,9.7,7.9,17.6,17.7,17.6c9.8,0,17.7-7.9,17.7-17.6v-20.9c6.1-2.2,11.7-5.4,16.5-9.6l18.2,10.5c8.5,4.9,19.2,2,24.1-6.4
			C337.4,459.4,334.5,448.6,326,443.7z M256,441.4c-9.8,0-17.7-7.9-17.7-17.7S246.2,406,256,406s17.7,7.9,17.7,17.6
			S265.8,441.4,256,441.4z M400,64c-5.3,0-10.6,0.4-15.8,1.1C354.3,24.4,307.2,0,256,0s-98.3,24.4-128.2,65.1
			c-5.2-0.8-10.5-1.1-15.8-1.1C50.2,64,0,114.2,0,176s50.2,112,112,112c13.7,0,27.1-2.5,39.7-7.3c29,25.2,65.8,39.3,104.3,39.3
			c38.5,0,75.3-14.1,104.3-39.3c12.6,4.8,26,7.3,39.7,7.3c61.8,0,112-50.2,112-112S461.8,64,400,64z M400,256
			c-17.1,0-32.9-5.5-45.9-14.7C330.6,269.6,295.6,288,256,288c-39.6,0-74.6-18.4-98.1-46.7c-13,9.2-28.8,14.7-45.9,14.7
			c-44.2,0-80-35.8-80-80s35.8-80,80-80c10.8,0,21.1,2.2,30.4,6.1C163.7,60.7,206.3,32,256,32s92.3,28.7,113.5,70.1
			c9.4-3.9,19.7-6.1,30.5-6.1c44.2,0,80,35.8,80,80S444.2,256,400,256z"/>
	</g>
</g>
</svg>
