<?xml version="1.0"?>
<svg xmlns="http://www.w3.org/2000/svg" xmlns:xlink="http://www.w3.org/1999/xlink" xmlns:svgjs="http://svgjs.com/svgjs" version="1.1" width="512" height="512" x="0" y="0" viewBox="0 -26 512 512" style="enable-background:new 0 0 512 512" xml:space="preserve" class=""><g><path xmlns="http://www.w3.org/2000/svg" d="m331.828125 70.558594c0-38.90625-31.648437-70.558594-70.554687-70.558594s-70.558594 31.652344-70.558594 70.558594h30c0-22.367188 18.195312-40.558594 40.558594-40.558594 22.363281 0 40.554687 18.191406 40.554687 40.558594 0 22.363281-18.191406 40.554687-40.554687 40.554687h-261.273438v30h261.273438c38.90625 0 70.554687-31.652343 70.554687-70.554687zm0 0" fill="#ede7e7" data-original="#000000" style="" class=""/><path xmlns="http://www.w3.org/2000/svg" d="m398.265625 201.113281c32.023437 0 62.34375 10.347657 87.691406 29.925781l18.339844-23.738281c-30.648437-23.675781-67.3125-36.1875-106.03125-36.1875h-53.820313c28.925782-23.96875 47.382813-60.144531 47.382813-100.558593h-30c0 55.449218-45.109375 100.558593-100.554687 100.558593h-261.273438v30zm0 0" fill="#ede7e7" data-original="#000000" style="" class=""/><path xmlns="http://www.w3.org/2000/svg" d="m398.265625 232.644531h-398.265625v29.996094h398.265625c46.171875 0 83.734375 37.566406 83.734375 83.738281 0 46.175782-37.5625 83.738282-83.734375 83.738282-46.175781 0-83.738281-37.5625-83.738281-83.738282h-30c0 62.714844 51.023437 113.738282 113.738281 113.738282 62.710937 0 113.734375-51.023438 113.734375-113.738282s-51.023438-113.734375-113.734375-113.734375zm0 0" fill="#ede7e7" data-original="#000000" style="" class=""/><path xmlns="http://www.w3.org/2000/svg" d="m0 292.777344h204.257812v29.996094h-204.257812zm0 0" fill="#ede7e7" data-original="#000000" style="" class=""/></g></svg>
