<svg width="512" height="512" xmlns="http://www.w3.org/2000/svg" xml:space="preserve" enable-background="new 0 0 512 512" version="1.1">

 <g>
  <title>Layer 1</title>
  <g id="svg_33">
   <g id="svg_34">
    <path id="svg_35" d="m256,144c-61.75,0 -112,50.25 -112,112c0,61.75 50.25,112 112,112s112,-50.25 112,-112c0,-61.75 -50.25,-112 -112,-112zm0,192c-44.188,0 -80,-35.812 -80,-80s35.812,-80 80,-80s80,35.812 80,80s-35.812,80 -80,80zm0,-224c8.833,0 16,-7.167 16,-16l0,-32c0,-8.833 -7.167,-16 -16,-16s-16,7.167 -16,16l0,32c0,8.833 7.167,16 16,16zm0,288c-8.833,0 -16,7.167 -16,16l0,32c0,8.833 7.167,16 16,16s16,-7.167 16,-16l0,-32c0,-8.833 -7.167,-16 -16,-16zm124.438,-245.833l22.625,-22.625c6.25,-6.25 6.25,-16.375 0,-22.625c-6.25,-6.25 -16.375,-6.25 -22.625,0l-22.625,22.625c-6.25,6.25 -6.25,16.375 0,22.625c6.249,6.25 16.375,6.25 22.625,0zm-248.876,203.667l-22.625,22.625c-6.25,6.249 -6.25,16.374 0,22.624s16.375,6.25 22.625,0l22.625,-22.624c6.25,-6.271 6.25,-16.376 0,-22.625c-6.249,-6.251 -16.375,-6.272 -22.625,0zm-19.562,-101.834c0,-8.833 -7.167,-16 -16,-16l-32,0c-8.833,0 -16,7.167 -16,16s7.167,16 16,16l32,0c8.833,0 16,-7.167 16,-16zm336,-16l-32,0c-8.833,0 -16,7.167 -16,16s7.167,16 16,16l32,0c8.833,0 16,-7.167 16,-16s-7.167,-16 -16,-16zm-316.459,-85.833c6.251,6.25 16.376,6.25 22.625,0c6.251,-6.25 6.251,-16.375 0,-22.625l-22.625,-22.625c-6.25,-6.25 -16.374,-6.25 -22.625,0c-6.25,6.25 -6.25,16.375 0,22.625l22.625,22.625zm248.918,203.645c-6.271,-6.25 -16.376,-6.25 -22.625,0c-6.251,6.25 -6.271,16.375 0,22.625l22.625,22.625c6.249,6.25 16.374,6.25 22.624,0s6.25,-16.374 0,-22.625l-22.624,-22.625z" fill="#1D1D1B" clip-rule="evenodd" fill-rule="evenodd"/>
   </g>
  </g>
 </g>
</svg>