<svg width="512" height="512" xmlns="http://www.w3.org/2000/svg" xml:space="preserve" enable-background="new 0 0 512 512" version="1.1">

 <g>
  <title>Layer 1</title>
  <g id="Grid_1_">
   <g id="Layer_1_1_">
    <g id="Grid">
     <g id="svg_1">
      <rect x="-578" y="-17" id="svg_2" height="512" width="512" stroke-miterlimit="10" stroke="#A9CCDB" fill="none"/>
      <line id="svg_3" y2="463" x2="-66" y1="463" x1="-578" stroke-miterlimit="10" stroke="#A9CCDB" fill="none"/>
      <line id="svg_4" y2="431" x2="-66" y1="431" x1="-578" stroke-miterlimit="10" stroke="#A9CCDB" fill="none"/>
      <line id="svg_5" y2="399" x2="-66" y1="399" x1="-578" stroke-miterlimit="10" stroke="#A9CCDB" fill="none"/>
      <line id="svg_6" y2="367" x2="-66" y1="367" x1="-578" stroke-miterlimit="10" stroke="#A9CCDB" fill="none"/>
      <line id="svg_7" y2="335" x2="-66" y1="335" x1="-578" stroke-miterlimit="10" stroke="#A9CCDB" fill="none"/>
      <line id="svg_8" y2="303" x2="-66" y1="303" x1="-578" stroke-miterlimit="10" stroke="#A9CCDB" fill="none"/>
      <line id="svg_9" y2="271" x2="-66" y1="271" x1="-578" stroke-miterlimit="10" stroke="#A9CCDB" fill="none"/>
      <line id="svg_10" y2="239" x2="-66" y1="239" x1="-578" stroke-miterlimit="10" stroke="#A9CCDB" fill="none"/>
      <line id="svg_11" y2="207" x2="-66" y1="207" x1="-578" stroke-miterlimit="10" stroke="#A9CCDB" fill="none"/>
      <line id="svg_12" y2="175" x2="-66" y1="175" x1="-578" stroke-miterlimit="10" stroke="#A9CCDB" fill="none"/>
      <line id="svg_13" y2="143" x2="-66" y1="143" x1="-578" stroke-miterlimit="10" stroke="#A9CCDB" fill="none"/>
      <line id="svg_14" y2="111" x2="-66" y1="111" x1="-578" stroke-miterlimit="10" stroke="#A9CCDB" fill="none"/>
      <line id="svg_15" y2="79" x2="-66" y1="79" x1="-578" stroke-miterlimit="10" stroke="#A9CCDB" fill="none"/>
      <line id="svg_16" y2="47" x2="-66" y1="47" x1="-578" stroke-miterlimit="10" stroke="#A9CCDB" fill="none"/>
      <line id="svg_17" y2="15" x2="-66" y1="15" x1="-578" stroke-miterlimit="10" stroke="#A9CCDB" fill="none"/>
      <line id="svg_18" y2="495" x2="-98" y1="-17" x1="-98" stroke-miterlimit="10" stroke="#A9CCDB" fill="none"/>
      <line id="svg_19" y2="495" x2="-130" y1="-17" x1="-130" stroke-miterlimit="10" stroke="#A9CCDB" fill="none"/>
      <line id="svg_20" y2="495" x2="-162" y1="-17" x1="-162" stroke-miterlimit="10" stroke="#A9CCDB" fill="none"/>
      <line id="svg_21" y2="495" x2="-194" y1="-17" x1="-194" stroke-miterlimit="10" stroke="#A9CCDB" fill="none"/>
      <line id="svg_22" y2="495" x2="-226" y1="-17" x1="-226" stroke-miterlimit="10" stroke="#A9CCDB" fill="none"/>
      <line id="svg_23" y2="495" x2="-258" y1="-17" x1="-258" stroke-miterlimit="10" stroke="#A9CCDB" fill="none"/>
      <line id="svg_24" y2="495" x2="-290" y1="-17" x1="-290" stroke-miterlimit="10" stroke="#A9CCDB" fill="none"/>
      <line id="svg_25" y2="495" x2="-322" y1="-17" x1="-322" stroke-miterlimit="10" stroke="#A9CCDB" fill="none"/>
      <line id="svg_26" y2="495" x2="-354" y1="-17" x1="-354" stroke-miterlimit="10" stroke="#A9CCDB" fill="none"/>
      <line id="svg_27" y2="495" x2="-386" y1="-17" x1="-386" stroke-miterlimit="10" stroke="#A9CCDB" fill="none"/>
      <line id="svg_28" y2="495" x2="-418" y1="-17" x1="-418" stroke-miterlimit="10" stroke="#A9CCDB" fill="none"/>
      <line id="svg_29" y2="495" x2="-450" y1="-17" x1="-450" stroke-miterlimit="10" stroke="#A9CCDB" fill="none"/>
      <line id="svg_30" y2="495" x2="-482" y1="-17" x1="-482" stroke-miterlimit="10" stroke="#A9CCDB" fill="none"/>
      <line id="svg_31" y2="495" x2="-514" y1="-17" x1="-514" stroke-miterlimit="10" stroke="#A9CCDB" fill="none"/>
      <line id="svg_32" y2="495" x2="-546" y1="-17" x1="-546" stroke-miterlimit="10" stroke="#A9CCDB" fill="none"/>
     </g>
    </g>
   </g>
  </g>
  <g id="svg_33">
   <g id="svg_34">
    <path id="svg_35" d="m208,64c8.833,0 16,-7.167 16,-16l0,-32c0,-8.833 -7.167,-16 -16,-16s-16,7.167 -16,16l0,32c0,8.833 7.167,16 16,16zm124.438,42.167l22.625,-22.625c6.249,-6.25 6.249,-16.375 0,-22.625c-6.25,-6.25 -16.375,-6.25 -22.625,0l-22.625,22.625c-6.25,6.25 -6.25,16.375 0,22.625c6.249,6.25 16.375,6.25 22.625,0zm-316.438,117.833l32,0c8.833,0 16,-7.167 16,-16s-7.167,-16 -16,-16l-32,0c-8.833,0 -16,7.167 -16,16s7.167,16 16,16zm336,-16c0,8.833 7.167,16 16,16l32,0c8.833,0 16,-7.167 16,-16s-7.167,-16 -16,-16l-32,0c-8.833,0 -16,7.167 -16,16zm-268.459,-101.833c6.251,6.25 16.376,6.25 22.625,0c6.251,-6.25 6.251,-16.375 0,-22.625l-22.625,-22.625c-6.25,-6.25 -16.374,-6.25 -22.625,0c-6.25,6.25 -6.25,16.375 0,22.625l22.625,22.625zm316.459,149.833c-5.312,0 -10.562,0.375 -15.792,1.125c-16.771,-22.875 -39.124,-40.333 -64.458,-51.5c-1.291,-60.625 -50.812,-109.625 -111.75,-109.625c-61.75,0 -112,50.25 -112,112c0,17.438 4.334,33.75 11.5,48.438c-59.625,2.437 -107.5,51.374 -107.5,111.562c0,61.75 50.25,112 112,112c13.688,0 27.084,-2.5 39.709,-7.333c28.957,25.25 65.791,39.333 104.291,39.333c38.542,0 75.333,-14.083 104.291,-39.333c12.625,4.833 26.021,7.333 39.709,7.333c61.75,0 112,-50.25 112,-112s-50.25,-112 -112,-112zm-192,-128c39.812,0 72.562,29.167 78.708,67.25c-10.021,-2 -20.249,-3.25 -30.708,-3.25c-45.938,0 -88.5,19.812 -118.375,53.25c-5.937,-11.167 -9.625,-23.708 -9.625,-37.25c0,-44.188 35.812,-80 80,-80zm192,320c-17.125,0 -32.916,-5.5 -45.938,-14.667c-23.478,28.292 -58.438,46.667 -98.062,46.667c-39.625,0 -74.584,-18.375 -98.062,-46.667c-13,9.167 -28.813,14.667 -45.938,14.667c-44.188,0 -80,-35.812 -80,-80s35.812,-80 80,-80c7.75,0 15.062,1.458 22.125,3.541c2.812,0.792 5.667,1.417 8.312,2.521c4.375,-8.562 9.875,-16.396 15.979,-23.75c23.376,-28.124 58.146,-46.312 97.584,-46.312c10.125,0 19.834,1.458 29.25,3.709c10.562,2.499 20.542,6.291 29.834,11.291c23.291,12.375 42.416,31.542 54.457,55.063c9.397,-3.875 19.668,-6.063 30.459,-6.063c44.188,0 80,35.812 80,80s-35.812,80 -80,80z" fill="#1D1D1B"/>
   </g>
  </g>
 </g>
</svg>