<svg width="512" height="512" xmlns="http://www.w3.org/2000/svg" xml:space="preserve" enable-background="new 0 0 512 512" version="1.1">

 <g>
  <title>Layer 1</title>
  <g id="svg_33">
   <g id="svg_34">
    <path id="svg_35" d="m112,160l288,0c8.833,0 16,-7.167 16,-16s-7.167,-16 -16,-16l-288,0c-8.833,0 -16,7.167 -16,16s7.167,16 16,16zm288,32l-288,0c-8.833,0 -16,7.167 -16,16s7.167,16 16,16l288,0c8.833,0 16,-7.167 16,-16s-7.167,-16 -16,-16zm0,64l-288,0c-8.833,0 -16,7.167 -16,16s7.167,16 16,16l288,0c8.833,0 16,-7.167 16,-16s-7.167,-16 -16,-16zm0,64l-288,0c-8.833,0 -16,7.167 -16,16s7.167,16 16,16l288,0c8.833,0 16,-7.167 16,-16s-7.167,-16 -16,-16z" fill="#1D1D1B"/>
   </g>
  </g>
 </g>
</svg>