<svg width="512" height="512" xmlns="http://www.w3.org/2000/svg" xml:space="preserve" enable-background="new 0 0 512 512" version="1.1">

 <g>
  <title>Layer 1</title>
  <g id="svg_33">
   <g id="svg_34">
    <path id="svg_35" d="m400,64c-5.312,0 -10.562,0.375 -15.792,1.125c-29.874,-40.708 -77.02,-65.125 -128.208,-65.125s-98.312,24.417 -128.208,65.125c-5.23,-0.75 -10.48,-1.125 -15.792,-1.125c-61.75,0 -112,50.25 -112,112s50.25,112 112,112c13.688,0 27.084,-2.5 39.709,-7.333c28.957,25.25 65.791,39.333 104.291,39.333c38.542,0 75.333,-14.083 104.291,-39.333c12.625,4.833 26.021,7.333 39.709,7.333c61.75,0 112,-50.25 112,-112s-50.25,-112 -112,-112zm0,192c-9.709,0 -19.209,-1.75 -28.25,-5.208l-18,-6.917l-14.5,12.667c-23.25,20.291 -52.812,31.458 -83.25,31.458s-60,-11.167 -83.25,-31.458l-14.5,-12.667l-18,6.917c-9,3.458 -18.541,5.208 -28.25,5.208c-44.125,0 -80,-35.896 -80,-80s35.875,-80 80,-80c3.792,0 7.5,0.271 11.25,0.792l18.958,2.75l11.354,-15.458c24.313,-33.105 61.647,-52.084 102.438,-52.084c40.812,0 78.125,18.958 102.417,52.063l11.375,15.479l18.999,-2.75c3.709,-0.521 7.417,-0.792 11.209,-0.792c44.125,0 80,35.896 80,80s-35.875,80 -80,80zm-304,64c-17.688,0 -32,14.312 -32,32s14.312,32 32,32s32,-14.312 32,-32s-14.312,-32 -32,-32zm160,32c-17.688,0 -32,14.312 -32,32s14.312,32 32,32s32,-14.312 32,-32s-14.312,-32 -32,-32zm160,-32c-17.688,0 -32,14.312 -32,32s14.312,32 32,32s32,-14.312 32,-32s-14.312,-32 -32,-32zm-64,128c-17.688,0 -32,14.312 -32,32s14.312,32 32,32s32,-14.312 32,-32s-14.312,-32 -32,-32zm-192,0c-17.688,0 -32,14.312 -32,32s14.312,32 32,32s32,-14.312 32,-32s-14.312,-32 -32,-32z" fill="#1D1D1B"/>
   </g>
  </g>
 </g>
</svg>