<?xml version="1.0" encoding="utf-8"?>
<!-- Generator: Adobe Illustrator 15.1.0, SVG Export Plug-In . SVG Version: 6.00 Build 0)  -->
<!DOCTYPE svg PUBLIC "-//W3C//DTD SVG 1.1//EN" "http://www.w3.org/Graphics/SVG/1.1/DTD/svg11.dtd">
<svg version="1.1" id="Layer_1" xmlns="http://www.w3.org/2000/svg" xmlns:xlink="http://www.w3.org/1999/xlink" x="0px" y="0px"
	 width="512px" height="512px" viewBox="0 0 512 512" enable-background="new 0 0 512 512" xml:space="preserve">

<path fill="#1D1D1B" d="M512,134.833c0-49.146-40-89.124-89.167-89.124c-2.396,0-4.771,0.083-7.146,0.27
	C392.562,17.146,357.709,0,320,0c-37.688,0-72.562,17.146-95.688,45.979c-2.375-0.187-4.771-0.27-7.188-0.27
	C168,45.709,128,85.688,128,134.833c0,5.146,0.688,10.125,1.5,15.042c-0.542,0.708-1.188,1.354-1.708,2.083
	c-5.229-0.75-10.479-1.125-15.792-1.125c-61.75,0-112,50.25-112,112c0,61.751,50.25,112,112,112c13.688,0,27.084-2.499,39.709-7.333
	c18.354,16,40.104,26.938,63.207,33.208L192,416l32,32l-32,64l96-64l-32-32l4.812-9.583c36.75-1.125,71.75-14.729,99.479-38.917
	c12.625,4.834,26.021,7.333,39.709,7.333c61.75,0,112-50.249,112-112c0-25.666-9.042-49.083-23.666-68
	C502.916,178.958,512,158.021,512,134.833z M400,342.833c-17.125,0-32.916-5.5-45.938-14.646c-19,22.896-45.75,38.729-76.229,44.125
	l-23.771,2.312C215.25,374,181,356,157.938,328.188c-13,9.146-28.812,14.646-45.938,14.646c-44.188,0-80-35.791-80-80
	c0-44.167,35.812-80,80-80c10.812,0,21.062,2.209,30.438,6.083c0.562-1.083,1.25-2,1.812-3.042
	c5.625-10.271,12.562-19.667,20.666-28.042c23.084-23.896,55.167-39,91.084-39c49.709,0,92.334,28.667,113.541,70.083
	c5.646-2.333,11.668-3.833,17.875-4.833l12.584-1.25c12.334,0,23.875,3.042,34.312,8c11.312,5.417,21.021,13.375,28.646,23.208
	c10.5,13.521,17.042,30.334,17.042,48.792C480,307.042,444.188,342.833,400,342.833z M465.562,172.458
	c-18.479-13.438-41-21.625-65.562-21.625c-5.312,0-10.562,0.375-15.792,1.125C354.334,111.271,307.188,86.833,256,86.833
	c-34.125,0-66.312,11.062-92.938,30.354c7.479-22.853,28.729-39.478,54.062-39.478c7.75,0,15.062,1.562,21.75,4.333
	C254.062,52.458,284.5,32,320,32s65.958,20.458,81.084,50.042c6.729-2.771,14.083-4.333,21.749-4.333
	c31.584,0,57.167,25.583,57.167,57.124C480,149.333,474.438,162.396,465.562,172.458z"/>
</svg>
